<svg xmlns="http://www.w3.org/2000/svg" width="600" height="203" fill="none" viewBox="0 0 600 203"><path fill="#034da1" d="M276.8 81.5c2.7 3 4.7 6.2 6 9.8s2 7.7 2 12.4c.1 11.3-4 20.6-12.3 28s-18.6 11.1-31 11.2c-5.7 0-11.4-.8-17.1-2.6-5.7-1.7-10.6-3.8-14.8-6.3l-3.8 6.6h-7.2l-1.5-43.7h7.3c1.5 5.4 3.3 10.2 5.4 14.6 2 4.3 4.7 8.4 8 12.1 3.1 3.5 6.8 6.3 11 8.4s9 3.1 14.5 3.1c4.1 0 7.8-.6 10.8-1.7 3.1-1.1 5.6-2.7 7.5-4.6 1.9-2 3.3-4.3 4.2-7s1.4-5.8 1.3-9.3c0-5.1-1.5-9.8-4.4-14.2s-7.2-7.7-12.9-10c-3.9-1.5-8.4-3.2-13.4-5.1-5-1.8-9.4-3.6-13.1-5.2-7.2-3.2-12.8-7.4-16.9-12.6-4-5.2-6-12.1-6.1-20.5 0-4.9.9-9.4 2.9-13.6s4.8-8 8.4-11.3c3.5-3.1 7.6-5.6 12.3-7.4s9.7-2.7 14.8-2.7c5.9 0 11.1.8 15.8 2.6s8.9 3.8 12.8 6.2l3.7-6.1 7.2-.1 1 42.4h-7.3c-1.3-4.9-2.9-9.5-4.5-13.9-1.7-4.4-3.8-8.4-6.5-12-2.6-3.5-5.8-6.2-9.5-8.3-3.7-2-8.3-3-13.7-3-5.7 0-10.5 1.9-14.5 5.6s-6 8.2-5.9 13.4c0 5.5 1.3 10.1 3.9 13.7s6.4 6.6 11.3 8.9q6.6 3.15 12.9 5.4t12.3 4.8c3.6 1.5 7.1 3.3 10.4 5.2 3.4 1.9 6.3 4.2 8.7 6.8M432.8 139.1l-34.4.2c-7.7-11.9-14.6-22.2-20.8-30.8-6.2-8.7-12.9-17.6-20.2-26.8l-13.1.1.2 40.5c0 2.1.4 3.9 1 5.5.7 1.6 2.1 2.8 4.3 3.6 1.1.4 3 .8 5.7 1.1s5 .5 6.8.6v6.4l-54 .3v-6.4c1.4-.1 3.5-.4 6.2-.7q4.05-.45 5.7-1.2c1.8-.8 3.1-1.9 3.9-3.4s1.2-3.4 1.2-5.8l-.6-92.3c0-2.1-.3-4-.9-5.6s-2-2.8-4.3-3.7c-1.5-.5-3.4-1-5.9-1.4-2.4-.4-4.4-.7-6.1-.8v-6.4l58.9-.4c5.4 0 10.5.5 15.2 1.6s9.1 2.8 12.9 5.3q5.55 3.6 9 9.3c2.2 3.9 3.4 8.5 3.4 14 0 4.9-.7 9.3-2.2 13.1s-3.7 7.1-6.6 9.8c-2.7 2.6-5.9 4.9-9.7 6.8s-7.9 3.5-12.5 4.9c6.4 8.3 11.6 15.3 15.8 21s9.4 12.6 15.5 20.7c2.7 3.6 5.1 6.2 7.2 7.9s4.3 3.1 6.4 4.1c1.6.8 3.5 1.4 5.9 1.8 2.3.4 4.3.6 5.8.7zm-47.9-94.9c0-7.7-2.3-13.8-6.8-18.3s-10.7-6.7-18.8-6.7l-15.3.1.3 54.7 11.8-.1c8.3 0 15.1-2.7 20.6-8.1 5.5-5.2 8.3-12.5 8.2-21.6M598.7 138l-56.4.3v-6.4c2-.1 4.7-.3 7.9-.7s5.4-.9 6.6-1.6c1.8-1.1 3.2-2.5 4.1-3.9.9-1.5 1.3-3.3 1.3-5.5l-.6-92.8h-1.3l-42.9 109h-4.5L470.8 25.7h-1.2l.5 76.2q0 11.1 1.5 16.8c1 3.8 2.4 6.6 4.3 8.3 1.3 1.3 4.1 2.4 8.2 3.5q6.15 1.65 8.1 1.8v6.4l-51.5.3v-6.4c2.7-.3 5.5-.7 8.5-1.4q4.5-1.05 6.9-3c2.1-1.7 3.5-4.3 4.3-7.8s1.1-9.3 1.1-17.5l-.4-65.3c0-3.8-.5-6.9-1.4-9.3s-2.2-4.3-3.9-5.8q-2.85-2.4-6.9-3.6c-2.7-.8-5.4-1.2-8-1.3v-6.4l43.5-.3 37.1 95.6 30.7-80.3c1.1-2.9 2.1-6 2.9-9.2s1.2-5.4 1.3-6.4l41.6-.3v6.4c-1.7.1-3.8.4-6.4.9s-4.5 1-5.7 1.4c-2 .7-3.4 1.9-4.1 3.6s-1.1 3.5-1 5.5l.6 92c0 2.1.4 3.9 1.1 5.3s2.1 2.7 4.2 3.8c1.1.6 3 1.1 5.8 1.6s5 .8 6.6.8z"/><path fill="#000" d="M208 173h-7v-.9l.7-.1.7-.1.4-.5.1-.7v-11.9l-.1-.7-.4-.5-.7-.2-.7-.2v-.9h7v.9l-.7.1-.6.2-.5.5-.1.7v11.8l.1.8.5.5.6.2.7.1zM223.7 157.2l-.7.1-.8.5-.5 1.1c-.1.5-.1 1.3-.1 2.3v12H220l-7.9-12.9v7.9c0 1 0 1.7.1 2.2l.5 1.1.8.5.8.3v.9h-5.4v-.9l.8-.2.8-.4.5-1c.1-.5.1-1.2.1-2.3v-7.9l-.1-1.1-.4-.9-.7-.6-.9-.4v-1.2h4.8l6.9 11.3v-6.3c0-1 0-1.8-.2-2.2l-.5-1.1-.8-.5-.8-.3v-.9h5.4v.9zM229.8 173.5c-.8 0-1.5-.1-2.2-.4s-1.2-.5-1.7-.9l-.6.8h-.8l-.1-6.1h.8c.2.6.4 1.2.7 1.8s.6 1.2.9 1.7l1.2 1.3c.4.3 1 .5 1.6.5.8 0 1.4-.3 1.9-.8.4-.5.6-1.2.6-2 0-.7-.2-1.2-.5-1.6-.4-.4-.9-.8-1.7-1.2l-1.4-.6-1.2-.6c-.8-.4-1.5-1.1-1.9-1.9s-.6-1.8-.6-2.8c0-.6.1-1.3.3-1.9s.5-1.1.9-1.6c.4-.4.9-.8 1.5-1.1s1.3-.4 2-.4 1.4.1 2 .4 1.1.5 1.4.8l.5-.7h.8l.1 5.7h-.8c-.2-.6-.4-1.2-.6-1.9-.2-.6-.5-1.2-.8-1.6l-1-1.1-1.3-.4c-.6 0-1.2.2-1.6.7q-.6.75-.6 1.8c0 .7.2 1.2.5 1.6.4.4.9.8 1.7 1.1l1.3.6 1.2.6c.9.4 1.5 1 2 1.8.4.8.7 1.7.7 2.9 0 .7-.1 1.4-.4 2.1s-.6 1.2-1 1.7c-.5.5-1 .9-1.7 1.1q-.75.6-2.1.6M248.2 161.1h-.7c-.2-.7-.5-1.5-.9-2.3s-.8-1.3-1.1-1.3l-.7-.1h-1.1v13.1l.1.7.5.5.6.2.7.2v.9h-7.1v-.9l.7-.1.6-.2.5-.5.1-.8v-13.2h-1.1l-.7.1c-.3.1-.7.5-1.1 1.3s-.7 1.6-.9 2.3h-.7v-4.7h12.3zM255.8 173h-7v-.9l.7-.1.7-.1.4-.5.2-.7v-11.9l-.2-.7-.4-.5-.7-.2-.7-.2v-.9h7v.9l-.6.1-.7.2-.5.5-.1.7v11.8l.1.8.5.5.6.2.7.1zM268.8 161.1h-.7c-.2-.7-.5-1.5-.9-2.3s-.8-1.3-1.1-1.3l-.7-.1h-1.1v13.1l.1.7.5.5.6.2.7.2v.9h-7.1v-.9l.7-.1.6-.2.5-.5.1-.8v-13.2h-1.1l-.7.1c-.3.1-.7.5-1.1 1.3s-.7 1.6-.9 2.3h-.7v-4.7h12.3zM284.1 157.2l-.7.2-.8.4-.5 1.1c-.1.5-.1 1.3-.1 2.3v6.2c0 1.8-.5 3.3-1.4 4.4s-2.2 1.7-3.7 1.7c-1.8 0-3.2-.5-4.2-1.6q-1.5-1.65-1.5-4.5v-8.6l-.1-.7-.5-.5-.6-.2-.6-.1v-1h6.6v.9l-.5.1-.6.2-.5.5-.1.7v8.4c0 1.7.3 2.9.8 3.6.5.8 1.4 1.1 2.4 1.1s1.8-.4 2.4-1.3c.6-.8.9-2.1.9-3.7v-5.5c0-1-.1-1.8-.2-2.3l-.5-1.1-.8-.5-.8-.3v-.8h5.5v.9zM296.5 161.1h-.7c-.2-.7-.5-1.5-.9-2.3s-.8-1.3-1.1-1.3l-.7-.1H292v13.1l.1.7.5.5.6.2.7.2v.9h-7.1v-.9l.7-.1.6-.2.5-.5.1-.8v-13.2h-1.1l-.7.1c-.3.1-.7.5-1.1 1.3s-.7 1.6-.9 2.3h-.7v-4.7h12.3zM308.5 160.5h-.7c-.2-.6-.5-1.3-.9-1.9s-.8-1-1.3-1.2l-.7-.1h-2.6v6.5h1.3l.9-.1.7-.6.4-1 .3-1.2h.7v7h-.7l-.3-1.2-.4-1-.7-.6-.9-.2h-1.3v4.8l.1 1.2.3.7.6.3 1.1.1h.8l.8-.1.7-.2.5-.3c.3-.4.6-1 1-1.8s.6-1.4.7-1.8h.7l-.2 5.2h-11.9v-.9l.7-.1.6-.2.5-.5.1-.7v-11.8l-.1-.7-.5-.5-.7-.3-.6-.2v-.8h11zM326.7 158.1q.9 1.2 1.5 2.7c.4 1.1.5 2.3.5 3.7 0 1.2-.2 2.4-.5 3.5s-.8 2-1.3 2.8c-.6.8-1.3 1.5-2.2 1.9-.8.5-1.8.7-3 .7-.9 0-1.8-.2-2.6-.6s-1.5-1-2.2-1.8c-.6-.7-1.1-1.7-1.5-2.7-.4-1.1-.5-2.3-.5-3.6 0-1.4.2-2.6.5-3.7s.8-2.1 1.5-2.9c.6-.8 1.3-1.4 2.2-1.8q1.2-.6 2.7-.6 1.35 0 2.7.6c.9.5 1.6 1.1 2.2 1.8m-2.3 12q.45-1.05.6-2.4c.1-.9.2-1.9.2-3.1 0-1 0-1.9-.2-2.8-.1-.9-.3-1.7-.5-2.5-.3-.7-.6-1.3-1-1.7s-.9-.7-1.6-.7c-1.1 0-1.9.7-2.5 2s-.8 3.3-.8 5.7c0 1 0 2 .2 3q.15 1.35.6 2.4c.3.7.6 1.2 1 1.6q.6.6 1.5.6t1.5-.6c.5-.3.8-.8 1-1.5M341.4 160.7h-.7c-.2-.7-.5-1.3-.9-2.1-.4-.7-.9-1.1-1.2-1.2l-.7-.1h-2.8v6.6h1.3l.9-.2.7-.6.4-1 .3-1.2h.7v7h-.7l-.3-1.3-.4-1-.7-.6-1-.2H335v5.5l.1.7.5.5.5.2.7.1v.9H330v-.9l.7-.1.6-.2.5-.5.1-.8v-11.8l-.1-.7-.5-.5-.7-.3-.6-.2v-.4h11.4zM352.2 173.5c-.8 0-1.5-.1-2.2-.4s-1.2-.5-1.7-.9l-.6.8h-.8l-.1-6.1h.8c.2.6.4 1.2.7 1.8s.6 1.2.9 1.7l1.2 1.3c.4.3 1 .5 1.6.5.8 0 1.4-.3 1.9-.8.4-.5.6-1.2.6-2 0-.7-.2-1.2-.5-1.6-.4-.4-.9-.8-1.7-1.2l-1.4-.6-1.2-.6c-.8-.4-1.5-1.1-1.9-1.9s-.6-1.8-.6-2.8c0-.6.1-1.3.3-1.9s.5-1.1.9-1.6c.4-.4.9-.8 1.5-1.1s1.3-.4 2-.4 1.4.1 2 .4 1.1.5 1.4.8l.5-.7h.8l.1 5.7h-.8c-.2-.6-.4-1.2-.6-1.9-.2-.6-.5-1.2-.8-1.6l-1-1.1-1.3-.4c-.6 0-1.2.2-1.6.7q-.6.75-.6 1.8c0 .7.2 1.2.5 1.6.4.4.9.8 1.7 1.1l1.3.6 1.2.6c.9.4 1.5 1 2 1.8.4.8.7 1.7.7 2.9 0 .7-.1 1.4-.4 2.1s-.6 1.2-1 1.7c-.5.5-1 .9-1.6 1.1-.6.4-1.3.6-2.2.6M365.4 173.5c-.9 0-1.8-.2-2.6-.6s-1.5-1-2.1-1.7-1-1.7-1.4-2.8c-.3-1.1-.5-2.3-.5-3.6s.2-2.5.5-3.6.8-2.1 1.4-2.9 1.3-1.4 2.2-1.9c.8-.4 1.8-.7 2.7-.7.7 0 1.3.1 1.9.3l1.5.8.5-.6h.8l.1 6.1h-.8c-.4-1.9-1-3.2-1.6-4.1s-1.4-1.3-2.3-1.3c-1.1 0-2 .6-2.6 2-.6 1.3-.9 3.1-.9 5.5 0 1.3.1 2.5.3 3.4s.5 1.7.8 2.3.8 1 1.2 1.3l1.6.4c.8 0 1.6-.3 2.2-.9q.9-.9 1.8-2.7l.8.6c-.3.7-.6 1.3-.9 1.9l-1.1 1.4-1.6 1c-.4.3-1.1.4-1.9.4M378.8 173h-7v-.9l.7-.1.6-.1.5-.5.1-.7v-11.9l-.1-.7-.5-.5-.6-.2-.7-.2v-.9h7v.9l-.7.1-.6.2-.5.5-.1.7v11.8l.1.8.5.5.6.2.7.1zM391.2 160.5h-.7c-.2-.6-.5-1.3-.9-1.9s-.8-1-1.3-1.2l-.7-.1H385v6.5h1.3l.9-.1.7-.6.4-1 .3-1.2h.7v7h-.7l-.3-1.2-.4-1-.7-.6-.9-.2H385v4.8l.1 1.2.3.7.6.3 1 .1h.8l.8-.1.7-.2.5-.3c.3-.4.6-1 1-1.8s.6-1.4.7-1.8h.7l-.2 5.2h-11.9v-.9l.7-.1.6-.2.5-.5.1-.7v-11.8l-.1-.7-.5-.5-.7-.3-.6-.2v-.8h11.2v4.2zM407.7 157.2l-.7.1-.8.5-.5 1.1c-.1.5-.1 1.3-.1 2.3v12H404l-7.9-12.9v7.9c0 1 0 1.7.1 2.2l.5 1.1.8.5.8.3v.9h-5.4v-.9l.8-.2.7-.4.5-1c.1-.5.1-1.2.1-2.3v-7.9l-.1-1.1-.4-.9-.7-.6-.9-.4v-1.2h4.8l6.9 11.3v-6.3c0-1 0-1.8-.2-2.2l-.5-1.1-.8-.5-.8-.3v-.9h5.4zM415.1 173.5c-.9 0-1.8-.2-2.6-.6s-1.5-1-2.1-1.7-1-1.7-1.4-2.8c-.3-1.1-.5-2.3-.5-3.6s.2-2.5.5-3.6.8-2.1 1.4-2.9 1.3-1.4 2.2-1.9c.8-.4 1.8-.7 2.7-.7.7 0 1.3.1 1.9.3l1.5.8.5-.6h.8l.1 6.1h-.8c-.4-1.9-1-3.2-1.6-4.1s-1.4-1.3-2.3-1.3c-1.1 0-2 .6-2.6 2-.6 1.3-.9 3.1-.9 5.5 0 1.3.1 2.5.3 3.4s.5 1.7.8 2.3.8 1 1.2 1.3l1.6.4c.8 0 1.6-.3 2.2-.9q.9-.9 1.8-2.7l.8.6c-.3.7-.6 1.3-.9 1.9l-1.1 1.4-1.6 1c-.4.3-1.1.4-1.9.4M432.8 160.5h-.7c-.2-.6-.5-1.3-.9-1.9s-.8-1-1.3-1.2l-.7-.1h-2.6v6.5h1.3l.9-.1.7-.6.4-1 .3-1.2h.7v7h-.7l-.3-1.2-.4-1-.7-.6-.9-.2h-1.3v4.8l.1 1.2.3.7.6.3 1 .1h.8l.8-.1.7-.2.5-.3c.3-.4.6-1 1-1.8s.6-1.4.7-1.8h.7l-.2 5.2h-11.9v-.9l.7-.1.6-.2.5-.5.1-.7v-11.8l-.1-.7-.5-.5-.7-.3-.6-.2v-.8h11.2v4.2zM453.4 173h-5.2l-.6-.8-.6-.9c-.6.8-1.3 1.3-1.9 1.6s-1.3.5-2 .5q-1.65 0-2.7-1.2c-.7-.8-1.1-1.8-1.1-3.1 0-.6.1-1.2.2-1.6l.6-1.4 1-1.2 1.4-1c-.5-.9-.9-1.7-1.1-2.3s-.3-1.3-.3-1.9c0-1.1.4-2.1 1.1-2.8s1.6-1.1 2.6-1.1c.9 0 1.7.3 2.3.9s.9 1.4.9 2.3c0 .8-.2 1.6-.5 2.2-.3.7-.9 1.3-1.7 1.9.7 1.1 1.2 1.9 1.5 2.5s.8 1.3 1.4 2.2c.4-.7.7-1.4.8-2q.3-.9.3-1.5l-.4-.6-1.1-.4v-.9h5v.9l-1.2.3-.8.7-.4.8-.4 1-.6 1.3-.7 1.4c.5.9 1 1.5 1.3 1.9l.9.9 1 .4 1.2.2v.8zm-6.8-2.5c-.5-.8-1.1-1.7-1.7-2.8-.7-1-1.3-2.1-1.8-3l-.7 1.4-.2 1.6c0 1 .3 1.9.8 2.6s1.1 1 1.9 1l.9-.2zm-.1-11.3c0-.7-.1-1.2-.4-1.6l-1-.6-.9.5-.4 1.3.3 1.5c.2.6.6 1.3 1 2.1l1-1.5c.3-.5.4-1.1.4-1.7M470.4 161.1h-.7c-.2-.7-.5-1.5-.9-2.3s-.8-1.3-1.1-1.3l-.7-.1h-1.1v13.1l.1.7.5.5.6.2.7.2v.9h-7.1v-.9l.7-.1.6-.2.5-.5.1-.8v-13.2h-1.1l-.7.1c-.3.1-.7.5-1.1 1.3s-.7 1.6-.9 2.3h-.7v-4.7h12.3zM482.3 160.5h-.7c-.2-.6-.5-1.3-.9-1.9s-.8-1-1.3-1.2l-.7-.1h-2.6v6.5h1.3l.9-.1.7-.6.4-1 .3-1.2h.7v7h-.7l-.3-1.2-.4-1-.7-.6-.9-.2h-1.3v4.8l.1 1.2.3.7.6.3 1.1.1h.8l.8-.1.7-.2.5-.3c.3-.4.6-1 1-1.8s.6-1.4.7-1.8h.7l-.2 5.2h-11.9v-.9l.7-.1.6-.2.5-.5.1-.7v-11.8l-.1-.7-.5-.5-.7-.3-.6-.2v-.8h11.2v4.2zM490.9 173.5c-.9 0-1.8-.2-2.6-.6s-1.5-1-2.1-1.7-1-1.7-1.4-2.8c-.3-1.1-.5-2.3-.5-3.6s.2-2.5.5-3.6.8-2.1 1.4-2.9 1.3-1.4 2.2-1.9c.8-.4 1.8-.7 2.7-.7.7 0 1.3.1 1.9.3l1.5.8.5-.6h.8l.1 6.1h-.8c-.4-1.9-1-3.2-1.6-4.1s-1.4-1.3-2.3-1.3c-1.1 0-2 .6-2.6 2-.6 1.3-.9 3.1-.9 5.5 0 1.3.1 2.5.3 3.4s.5 1.7.8 2.3.8 1 1.2 1.3l1.6.4c.8 0 1.6-.3 2.2-.9q.9-.9 1.8-2.7l.8.6c-.3.7-.6 1.3-.9 1.9l-1.1 1.4-1.6 1c-.4.3-1.1.4-1.9.4M512.8 173h-6.9v-.9l.7-.1.6-.1.4-.5.2-.7v-5.8h-5.4v5.6l.1.8.4.5.6.2.7.1v.9h-6.9v-.9l.7-.1.6-.1.5-.5.1-.7v-11.9l-.1-.7-.5-.5-.7-.3-.6-.1v-.9h6.9v.9l-.7.1-.6.2-.4.5-.1.7v5h5.4v-4.9l-.2-.7-.4-.5-.6-.2-.7-.2v-.9h6.9v.9l-.7.1-.6.2-.5.5-.1.7v11.8l.1.8.5.5.6.2.7.1zM528.6 157.2l-.7.1-.8.5-.5 1.1c-.1.5-.1 1.3-.1 2.3v12h-1.6l-7.9-12.9v7.9c0 1 0 1.7.1 2.2l.5 1.1.8.5.8.3v.9h-5.4v-.9l.8-.2.8-.4.5-1c.1-.5.1-1.2.1-2.3v-7.9l-.1-1.1-.4-.9-.7-.6-.9-.4v-1.2h4.8l6.9 11.3v-6.3c0-1 0-1.8-.2-2.2l-.5-1.1-.8-.5-.8-.3v-.9h5.4v.9zM541 158.1q.9 1.2 1.5 2.7c.4 1.1.6 2.3.6 3.7 0 1.2-.2 2.4-.5 3.5s-.8 2-1.3 2.8c-.6.8-1.3 1.5-2.1 1.9-.8.5-1.8.7-3 .7-.9 0-1.8-.2-2.6-.6s-1.5-1-2.2-1.8c-.6-.7-1.1-1.7-1.5-2.7-.4-1.1-.5-2.3-.5-3.6 0-1.4.2-2.6.5-3.7s.8-2.1 1.5-2.9c.6-.8 1.3-1.4 2.2-1.8q1.2-.6 2.7-.6 1.35 0 2.7.6c.7.5 1.4 1.1 2 1.8m-2.2 12q.45-1.05.6-2.4c.1-.9.2-1.9.2-3.1 0-1 0-1.9-.1-2.8s-.3-1.7-.5-2.5c-.3-.7-.6-1.3-1-1.7s-.9-.7-1.6-.7c-1.1 0-1.9.7-2.5 2s-.8 3.3-.8 5.7c0 1 .1 2 .2 3q.15 1.35.6 2.4c.3.7.6 1.2 1 1.6q.6.6 1.5.6t1.5-.6q.45-.45.9-1.5M556.2 167.7l-.2 5.4h-11.7v-.9l.7-.1.6-.1.4-.5.1-.8v-11.8l-.1-.7-.5-.5-.7-.3-.6-.2v-.9h6.9v.9l-.7.1-.7.2-.5.5-.1.7v11l.1 1.2.3.7.7.3 1.1.1 1.4-.1 1-.5c.3-.4.6-1 .9-1.7s.6-1.4.8-2zM568.5 158.1q.9 1.2 1.5 2.7c.4 1.1.5 2.3.5 3.7 0 1.2-.2 2.4-.5 3.5s-.8 2-1.3 2.8c-.6.8-1.3 1.5-2.2 1.9-.8.5-1.8.7-3 .7-.9 0-1.8-.2-2.6-.6s-1.5-1-2.2-1.8c-.6-.7-1.1-1.7-1.5-2.7-.4-1.1-.5-2.3-.5-3.6 0-1.4.2-2.6.5-3.7s.8-2.1 1.5-2.9c.6-.8 1.3-1.4 2.2-1.8q1.2-.6 2.7-.6c1 0 1.8.2 2.7.6.9.5 1.6 1.1 2.2 1.8m-2.3 12q.45-1.05.6-2.4c.1-.9.2-1.9.2-3.1 0-1 0-1.9-.2-2.8-.1-.9-.3-1.7-.5-2.5-.3-.7-.6-1.3-1-1.7s-.9-.7-1.6-.7c-1.1 0-1.9.7-2.5 2s-.8 3.3-.8 5.7c0 1 .1 2 .2 3q.15 1.35.6 2.4c.3.7.6 1.2 1 1.6q.6.6 1.5.6t1.5-.6c.5-.3.8-.8 1-1.5M585.9 166.2l-.5.1-.5.2-.5.5-.1.7v3.8c-.6.5-1.5.9-2.6 1.3-1.2.4-2.2.6-3.2.6-.9 0-1.8-.2-2.6-.6s-1.5-.9-2.1-1.7c-.6-.7-1.1-1.6-1.4-2.7s-.5-2.3-.5-3.7c0-1.3.2-2.5.5-3.6s.8-2.1 1.4-2.9 1.3-1.4 2.2-1.8 1.8-.7 2.9-.7c.7 0 1.4.1 2 .4.6.2 1.1.5 1.5.8l.5-.7h.8l.1 6.1h-.8c-.5-1.8-1-3.2-1.6-4.1s-1.4-1.3-2.4-1.3c-1.1 0-2 .7-2.6 2s-.9 3.1-.9 5.5c0 2.5.3 4.4.9 5.8s1.5 2.1 2.6 2.1l1.4-.3.9-.7v-3.4l-.1-.7-.5-.5-.7-.3-.7-.2v-.9h6.6zM599.9 157.2l-.6.1-.5.3-.7.7-.6 1c-.4.7-.8 1.6-1.2 2.4-.4.9-.9 1.8-1.4 2.9q-.45 1.05-.6 1.5c-.1.4-.1 1-.1 1.9v2.4l.1.7.5.5.6.2.7.2v.9H589v-.9l.7-.1.7-.2.5-.5.1-.8v-3.6l-.1-.5-.2-.6-.4-.9c-.5-1.1-.9-2.1-1.3-3-.4-1-.8-1.8-1.2-2.7l-.6-1-.6-.6-.6-.3-.6-.1v-.8h7.3v.9c-.7 0-1.1.1-1.3.2l-.3.4.1.5.5 1.2q.3.75.9 2.1c.4.9.8 1.9 1.4 3.1 1.1-2.4 1.9-4 2.3-5 .4-.9.6-1.5.6-1.7l-.4-.6-1.2-.3v-.8h4.7v.9z"/><path fill="#c7a008" fill-rule="evenodd" d="M178 89c0 49.2-39.8 89-89 89S0 138.2 0 89 39.9 0 89 0c49.2-.1 89 39.8 89 89" clip-rule="evenodd"/><path fill="#e6e7e8" fill-rule="evenodd" d="M166.7 89.2c0 43.1-34.9 78.1-78 78.1s-78-35-78-78.1 34.9-78 78-78 78 34.9 78 78" clip-rule="evenodd"/><path fill="#fff" d="m129.3 17.3-.3-1.4 1.3-.4.4 1.4zM132.3 19l-.3-1.3 1.4-.4.3 1.4-1.4.4zM135.2 20.9l-.3-1.4 1.5-.3.2 1.4zM138 22.9l-.2-1.4 1.5-.2.1 1.4zM140.7 25l-.1-1.4 1.4-.1.1 1.4zM143.3 27.3v-1.5l1.4-.1.1 1.5zM145.8 29.6l.1-1.5h1.4v1.4zM148.2 32l.2-1.4h1.4l-.1 1.4h-1.5M150.6 34.5l.2-1.4 1.4.1-.2 1.4h-1.4zM152.8 37.2l.2-1.5 1.5.2-.2 1.4zM154.9 39.9l.3-1.4 1.4.1-.2 1.5zM156.9 42.7l.3-1.4 1.5.2-.4 1.4zM158.8 45.6l.4-1.4 1.4.2-.4 1.5zM160.5 48.5l.4-1.3 1.4.4-.4 1.3c-.5.3-1.1.2-1.4-.4M162.2 51.5l.4-1.3 1.5.4-.5 1.4zM163.7 54.6l.5-1.3 1.4.5-.5 1.3zM165.1 57.8l.6-1.3 1.3.5-.6 1.3zM166.4 61l.6-1.3 1.3.6-.6 1.3zM167.4 64.2c-.1-.5.1-1 .7-1.2l1.3.6-.7 1.3c-.6.1-1.1-.1-1.3-.7M168.4 67.5l.8-1.2 1.3.7-.7 1.2c-.7.2-1.2 0-1.4-.7M169.2 70.8l.8-1.1c.6-.1 1.1.2 1.2.7l-.7 1.2c-.6.1-1.2-.1-1.3-.8M169.9 74.2c-.1-.6.2-1.1.8-1.1.6-.1 1.1.2 1.2.8s-.3 1.1-.9 1.2c-.5 0-1-.3-1.1-.9M170.5 77.6l.9-1.1c.7-.1 1.1.3 1.2.8.1.6-.3 1-.9 1.1-.7.2-1.2-.2-1.2-.8M170.9 81l.9-1.1c.6-.1 1.1.3 1.1.9s-.3 1-.9 1.1-1.1-.2-1.1-.9M171.1 84.5c0-.6.4-1 1-1s1.1.4 1.1.9c.1.6-.4 1-1 1.1-.6 0-1.1-.4-1.1-1M171.2 87.9c0-.6.5-1 1-1 .6 0 1.1.4 1.1 1 0 .5-.4 1-1 1-.6.1-1.1-.4-1.1-1M171.2 91.3c0-.6.5-1 1.1-1s1 .5 1 1c0 .6-.4 1-1.1 1-.6.1-1-.4-1-1M171.1 94.7l1.1-.9c.6 0 1 .5 1 1-.1.6-.5.9-1.1.9-.6.1-1.1-.3-1-1M170.8 98.2c0-.6.5-.9 1.2-.8.6 0 .9.5.9 1.1s-.5.9-1.1.9c-.7-.1-1.1-.6-1-1.2M170.3 101.6c.1-.6.6-.8 1.2-.8.6.1.9.6.9 1.2l-1.1.8c-.7-.1-1.1-.6-1-1.2M169.7 105c.1-.5.6-.9 1.2-.7.6.1 1 .6.8 1.2-.1.6-.6.9-1.2.8-.5-.2-.9-.7-.8-1.3M169 108.4l1.2-.7c.6.1 1 .7.8 1.2-.1.6-.6.9-1.2.8-.6-.2-.9-.7-.8-1.3M168.1 111.7l1.2-.7c.6.2.9.7.8 1.3-.2.6-.7.8-1.3.7-.5-.2-.9-.7-.7-1.3M167.1 115c.2-.6.8-.8 1.3-.6.6.2.8.7.7 1.3-.2.5-.7.8-1.3.6zM165.9 118.2l1.3-.6c.6.3.9.8.6 1.4l-1.3.5c-.5-.2-.7-.7-.6-1.3M164.7 121.4l1.3-.5.6 1.3-1.3.5c-.6-.2-.9-.7-.6-1.3M163.3 124.5l1.4-.4.5 1.4-1.4.4zM161.8 127.6l1.3-.4.5 1.4-1.4.4zM160.1 130.6l1.4-.3.4 1.4-1.4.3zM158.3 133.5l1.4-.2.4 1.4-1.5.3zM156.4 136.4l1.4-.2.3 1.4-1.4.2zM154.3 139.2l1.5-.2.2 1.5-1.4.1zM152.3 141.8h1.4l.1 1.4-1.4.1-.2-1.5zM149.9 144.4h1.5l.1 1.5h-1.4zM147.6 147h1.4l.1 1.5-1.5-.1zM145.1 149.3l1.5.2v1.4l-1.5-.1zM142.6 151.6l1.4.2-.1 1.5-1.4-.2zM139.9 153.8l1.4.3-.1 1.4-1.4-.2.1-1.4zM137.2 155.9l1.4.3-.2 1.4-1.4-.2zM134.4 157.9l1.3.3-.2 1.5-1.4-.4.2-1.4zM131.5 159.7l1.4.4-.4 1.4-1.3-.3zM128.5 161.4l1.4.5-.4 1.4-1.4-.4zM125.5 163l1.3.6-.5 1.3-1.3-.5.4-1.4zM122.4 164.5l1.3.6-.5 1.3-1.3-.5c-.3-.6-.1-1.1.5-1.4M119.2 165.8l1.3.7-.6 1.3-1.3-.6c-.1-.6 0-1.2.6-1.4M116 167c.6-.2 1.1.1 1.3.7l-.6 1.3c-.5.2-1-.1-1.3-.7zM112.7 168.1l1.3.7c.2.6-.1 1.2-.7 1.3-.5.2-1-.1-1.3-.7zM109.4 169l1.2.7-.7 1.3c-.6.1-1.1-.2-1.2-.8-.1-.5.1-1.1.7-1.2M106.1 169.8l1.1.8c.1.6-.2 1.2-.8 1.3-.5.1-1.1-.2-1.2-.8 0-.7.3-1.2.9-1.3M102.7 170.4c.6-.1 1 .3 1.1.9s-.2 1.1-.8 1.2c-.5.1-1-.2-1.1-.8-.2-.7.1-1.2.8-1.3M99.3 170.9l1.1.9c0 .6-.3 1.1-.9 1.2s-1-.3-1.1-.9.2-1.1.9-1.2M95.9 171.3c.5-.1 1 .3 1 .9s-.3 1.1-.9 1.1c-.6.1-1-.4-1.1-1 0-.5.3-1 1-1M92.4 171.5c.6 0 1 .4 1 1s-.4 1.1-1 1.1-1-.4-1-1c.1-.6.4-1.1 1-1.1M89 171.5c.6 0 1 .5 1 1.1s-.4 1.1-1 1.1c-.5 0-1-.4-1-1.1 0-.6.4-1 1-1.1M85.6 171.5c.6.1 1 .5.9 1.1 0 .6-.5 1-1 1-.6-.1-1-.5-1-1.1.1-.6.5-1 1.1-1M82.1 171.3c.6 0 .9.5.9 1.1s-.5 1-1.1 1-.9-.5-.9-1.1c.1-.7.5-1.1 1.1-1M78.8 170.9c.5.1.9.6.8 1.2s-.5 1-1.1.9-.9-.5-.8-1.1c0-.7.5-1.1 1.1-1M75.4 170.4c.5.1.9.6.8 1.2s-.5 1-1.1.8c-.6-.1-.9-.6-.8-1.2 0-.5.5-.9 1.1-.8M72 169.8l.8 1.2c-.2.6-.7.9-1.2.9-.6-.1-.9-.6-.8-1.2.1-.7.5-1.1 1.2-.9M68.6 169l.7 1.3c-.2.6-.7.9-1.2.8l-.7-1.2c.1-.7.6-1.1 1.2-.9M65.3 168.1l.6 1.3c-.1.6-.7.9-1.3.7-.5-.2-.8-.7-.6-1.3s.7-.9 1.3-.7M62.1 167l.5 1.3-1.3.7c-.6-.2-.8-.7-.6-1.3zM58.9 165.9c.5.2.7.8.5 1.3l-1.3.6c-.5-.2-.7-.8-.5-1.4zM55.7 164.5l.5 1.4c-.2.5-.8.7-1.4.5l-.5-1.3zM52.6 163.1l.4 1.4-1.4.4-.4-1.3zM49.5 161.5l.4 1.4-1.4.4-.3-1.4zM46.5 159.7l.3 1.5-1.4.3-.3-1.3zM16.2 127.7l-.5 1.3-1.4-.4c-.3-.5-.1-1.1.5-1.4zM14.7 124.6l-.5 1.3-1.4-.4c-.3-.6-.1-1.1.5-1.4zM13.3 121.5l-.6 1.3-1.3-.5.5-1.3c.6-.3 1.1-.1 1.4.5M12 118.3l-.6 1.3c-.6.2-1.1 0-1.4-.6l.6-1.3c.7-.2 1.2 0 1.4.6M10.8 115.1l-.7 1.3-1.3-.6c-.2-.6.1-1.1.7-1.3s1.2-.1 1.3.6M9.9 111.8l-.7 1.2c-.6.2-1.1-.1-1.3-.7-.1-.5.2-1 .8-1.2.5-.1 1 .1 1.2.7M8.9 108.4c.2.6-.2 1.1-.8 1.2l-1.2-.7c-.1-.6.1-1.1.8-1.3.6 0 1.2.2 1.2.8M8.2 105.1c.1.6-.3 1.1-.9 1.1l-1.2-.7c-.1-.6.2-1.1.8-1.2.7-.1 1.2.2 1.3.8M7.7 101.7c.1.5-.3 1-.9 1.1l-1.2-.8c-.1-.6.3-1.1.9-1.1.6-.1 1 .2 1.2.8M7.2 98.3c0 .5-.3 1-.9 1.1-.6 0-1.1-.3-1.1-.8-.1-.6.3-1.1.9-1.1.6-.2 1.1.2 1.1.8M6.9 94.9c.1.6-.4 1-.9 1-.7 0-1.1-.3-1.1-.9-.1-.6.3-1 .9-1.1.6 0 1.1.3 1.1 1M6.7 91.4c0 .5-.4 1-1 1s-1-.4-1.1-1c0-.6.4-1 1-1 .7 0 1.1.4 1.1 1M6.7 88c0 .6-.4 1-1.1 1-.6 0-1-.5-1-1 0-.6.4-.9 1.1-.9.6-.1 1 .2 1 .9M6.8 84.5c0 .5-.5.9-1.1.9-.6-.1-1-.5-.9-1.1 0-.6.5-1 1.1-.9.5.1 1 .5.9 1.1M7.1 81.1c0 .5-.5.9-1.1.9-.6-.1-1-.5-1-1.1q.15-.9 1.2-.9c.5.1 1 .5.9 1.1M7.5 77.7l-1.2.8c-.6-.1-1-.5-.9-1.1s.6-.9 1.2-.8c.6 0 1 .5.9 1.1M8 74.3l-1.2.7-.8-1.1c.1-.6.6-.9 1.2-.8s1 .6.8 1.2M8.7 70.9c-.1.6-.6.9-1.2.8s-.9-.7-.8-1.3c.1-.5.6-.8 1.2-.7s1 .6.8 1.2M9.5 67.6l-1.2.7c-.6-.1-.9-.7-.8-1.3.2-.5.6-.8 1.2-.6.7.2 1 .6.8 1.2M10.5 64.3l-1.3.6c-.6-.2-.9-.7-.7-1.3l1.3-.7zM11.6 61.1l-1.3.5c-.6-.2-.8-.7-.6-1.3.2-.5.7-.8 1.3-.6.5.3.9.8.6 1.4M12.8 57.8l-1.3.5c-.6-.2-.8-.8-.6-1.3l1.4-.5zM14.2 54.7l-1.3.4c-.6-.2-.8-.8-.6-1.3l1.3-.4c.7.2.9.7.6 1.3M15.7 51.6l-1.4.4-.4-1.4 1.4-.4.5 1.4z"/><path fill="#034da1" d="M144.1 89.2c0 30.7-24.9 55.6-55.6 55.6s-55.6-24.9-55.6-55.6 24.8-55.5 55.6-55.5c30.7 0 55.6 24.9 55.6 55.5"/><path fill="#fff" fill-rule="evenodd" d="M92.9 45.8c.8 0 .8-.6 1.6-.6v1.4h.8l.3-1.1c1 0 1.1.9 1.1 1.9.8-.3 1-1.2 2.2-1.1 0 1.1-.6 1.6-1.7 1.7.5.8 1.4-.4 2.5-.1-1 2.1 1.4 1.9.9 3.3 1.3-.1.8-2 2.5-1.7.2.9-.3 1-.3 1.7.7-.2 1.3-.4 2.2-.3-.2.8-.6 1.3-1.4 1.4.2.7.9 1 1.4 1.4-.4 1.1-1.4.4-2 .8-2.1 1.4-1.1 4.6 2 3.9.5-.5.2-1.8.8-2.2 1.1.3.1 1.2.3 2.2 1.1-.3.5-1.7.8-2.2 1 .5 1.2-.1 2.2-.3.3.6.4 1.3.9 1.7.6-.6.7-.6 1.4 0 0 .7-1 .5-1.4.9 1.1 1-.8 2.9 1.4 3.3.8-.5.2-1.3.8-2.3.9-.1.7 1 1.1 1.4.6-.1.5-1 1.4-.9.1 1.5.3 1.7 0 3.1 1.1.1-.2-.7.5-1.1.9.4.3.6.6 1.6h-1.1l.5 1.4c-1.7 1.3.1 1.9-1.3 2.5.7 1 .8-1 1.7-.8-.2 1-1.2 1.4-1.7 2.2-.1 1 1 .7.9 1.6 1.1 0 .7-1.3 1.4-1.6.8.4.9 1.7.6 2.5.7.1.9-.4.8-1.1 1 .5.8-.1 1.7-.3.2.7.4 1.4 1.7 1.1.4 1.5-1 1.2-1.7 1.7.4.5 1.6.3 1.4 1.4-.5.3-1 .5-1.6.6.5.3.7.8.6 1.6.3 0 1.6.5.8 1.4.6-.5 1.2-1.1 1.9-1.4.7 0 .1.9-.3.9l.8.5c.5 0 .2-.9.8-.8-.8-.6-.4-1.6-1.4-1.4 1.1-1.2.4-1 0-2.5h1.7v-1.4c.7-.8 1.8.3 1.9 1.1.8-.5.1-.9 1.4-1.1l-1.1-.6c.1-.9 1.5-.6 1.7-1.4-.2-1.2-1.9-.9-1.4-2.8 1 .3 1.7 1 2 2 1-.2-.1-1.1.2-2.3 1.1.2 1 1.6 1.4 2.5l.5-.8.8-.1c.7.8-.2 1.4 0 2.5 1.2.4.6-1.1 1.7-.8.2.8-.7.5-.5 1.4l.5-.3c.9.4-.5.7-.3 1.4 1.3 1 2-1 3.6-.6-.7 1.3.7 1.8 1.7 2.2-.8 1.1.5 1.2 1.4 1.9.3 1-1.4.6-1.6.3l.6 1.1c0 .6-1.2.2-1.6.3.1 1 .7.7.3 1.7l.8-.3c.8.6-.1 2-.8 2.2l.8.5c-.8 1.5-2.5 2.3-3.3 3 .4.7 1.8-.6 2.2 0-1.3 1.1-2.3.9-3.9 1.5-.1 1 .3 1.6 1.1 1.6-1.4.9.3 1.7-1.1 2 .7 1 1.7-.5 3.3.2-.1.9-1.6 1.4-2.2.9 0 .9.8.9.5 1.9-.6-.2-.8-1-1.4-1.1.1.7.2 1.5.6 1.9-.6 1-1.8-1.2-2.2.3-.6-.1-.1-1.3-.8-1.2-.6.7 1 1.8.3 2.8l1.1-1.4c1.2.3-.2 1.4-.5 1.9.2.8.8 1.2 1.1 1.9-.5.8-.8.3-1.7.3v-1.7c-.1-.8-1.1 1-1.4 0l-.8 1.4c-1-.2-.4-1.3 0-1.6-.3-.2-2.2.7-1.4 1.7-1.8-.5.4 2.2-2.5 2 0 .7.5.5 0 1.1-1.4-.3-1.6.5-1.9 1.4-.6-.4-1.3-.7-.9-1.7-.7.1-.7.9-1.3 1.1-.7-.5-.2-2.2.2-2.5.2-.8-.5-.6-.5-1.1l-.3 1.4c-.8.1-.6-.9-.8-1.4-1.1-.1-.5 1.3-1.9.9 0 .5-.6.6-.8 1.4-.7.1-.6-.5-1.4-.3.9.9 3.5.2 3.6 1.9-1.4.4-2.1-.8-2.8-.2.8.7-.2.5.6 1.7-1-.1-1.7-.6-2.5-.8l.6 1.4c-.6.8-1.6-.2-1.9-.5l-1.4 1.9c-.2-.2-.2-.9-.3-1.9.7 0 .7-.8 1.1-1.1-.4-.8-.6.9-1.4.6.2-.7.7-1.1.8-2-1 .1-.9 1.3-1.1 2.3-.4-1.3-1.7-.1-2.2-1.4-.9.3-.5 1.9-1.7 2 .2-.8-.3-1-.3-1.7-.3.6-.6 1.3-.8 2-.9-1.1-.2-2-1.6-2.5 1.1.1 1.4-.6 2.2-.8 0-.6-1-.1-1.4-.3-.1-1.2 1.7-.5 2.2-1.1-2-1.5-4.8.7-6.1 1.7.4.8 1.1-.4 2 0 .2 1-.8.8-1.7.8.2.8 1.6.4 2 1.1-.3.7-1.4 0-1.7-.3-.6.5-.6 1.6-.8 2.5-2-.5.4-2.2-.3-3.1-2.8-.7-5.9 3.9-4.8 5.9.6 0 .4-.8 1.1-.6-.1 1.3.8.1 1.1 1.7-1.8.1-2.1 1.7-3.9 1.9-1.1 4-2.2 10.3 2.9 13.1l.3 1.1c-.8-.3-1.1-1.1-2.2-1.1 1.8 1.4 2.9 1.7 5.8 1.9l-1.1.5c.2.8.8-.4 1.6 0l-.5.3c.8.5 1.4 0 2.2 0 0 .5-.9.2-.8.8 1.2-.3 1.8-.3 2.8.2l-1.1.3c3.6.5 2.8 2.4 6.6 2.4-.8.3-.2.9.3.3.4.7 2.4-.2 2.8.5h-3.3c2.4.6 5.9.2 8.3.8 1.2 0 2.4 0 3.6-.1-.5.7-2.1.2-3 .3-5.4.2-10.2-.1-13.6-1.8 1.2 1.4 3.9 1.2 5.3 2.5.6-.6 5.9-.1 8.6-.1.4 0 4.8-.1 2.5.3-3.9.6-10.4 0-15.3-.2-.8-.4 1.2-.2 1.6-.3-1-.9-4.2-.7-5.3.1.9 1.6 4.8.2 6.4 1-2.3.7-5.8.1-8.3 0-.7-.3.7-1.2-.6-1.1l.3.8c-4.6.2-9.8-.8-15.2-.1 3.5-1.2 8.3-.9 12.2-.4-2.8-1.2-10.5-1.3-13.6.4-1.5-.5-2.9-.3-4.4-.2-.1-.8 1.5.2 1.4-.6 1.5.6 3.7-.1 5-.3-1.4-.4-4.3.3-6.4-.5 1 1.2-4.4.3-6.1.6 1.1.7 3.8-.2 5 .5-5.6.6-12.4.1-17.4 1.3 5.2-1.9 11.2-1.7 14.1-4.6.1-.6 1.4-.2 1.7 0-1.1.5-2.3 1.1-3.3 1.7.9.2 2.3-1.3 3.8-1.4-.4-.2-.4-.9-1.1-.8 2.7.5 4.7-2.2 6.6-2v-1.1c-6.5 2.9-12.1 6.4-21.8 6 1.7.9 4.2-.7 5.8.3-3.1.9-6.6.6-10 .7.2-.4 2.9-.9 3.9-.6-.7-1.1-3.5-.1-4.7.1-.9.2-1.6-.4-.3-.3 2.1-.6 3.3-.3 5.5-.9-1.5-.9-3.4.3-5.3.1 3.7-.6 7.8-1.5 11.6-1.2.9-.5 1.8-1 3.3-.9.3-.7 3.8-1.3 5.3-1.4-.3-.5-.2-1.5-1.4-1.1-.1.7 1.2-.2.8.8-4.5-.2-6.7 1.8-11.4 1.5 3.5.8-4.9 1.1-6.6 1.2.6-.8 1.8-1.3 2.2-.6l.3-.8c.4 0 .9 1.2.8 0l.5.8c.5-1.2 1.5-1 2.8-.9l-.6-.5 1.1.5.3-.8c1.7.3 2.1-.5 5-.6-.6-.5-4.5-.3-1.4-.6 1.1-.2 2.7-.4 3.9-1.1 3.2.3 5.8 1.7 7.2.5 1.1-1 2.4-2.2 3.3-3.7-.3-3.4 3.1-11.4.1-20.2-.7-.7-1.5-.8-3-.9-4.2-.4-8.6 4-12.5 3.1-.5.6-.9 1.3-1.1 2.2-1.5-1.5-2.4 1.7-2.7 3.1-.9-.1-.9-.9-.9-2-.8 0-.4 1.2-1.4 1.1v-.8c-.8-.2-.5.6-.8.9l-.5-1.2c-.8.1-.5 1.2-1.4 1.2.6-2.5-1.5-2.2-2.3-3.3l-.6 1.4c-.6-.8-1.4-.4-1.9.3-.7-.3.1-2.1-.6-2.5-1.6 1-2.6 1.7-4.1 1.5 1.1.5-.1 1.1-.3 2-.5-.3-.6-.9-.6-1.7-1.1-.1-1.1.9-2.2.9 0-1.7 2.2-2.6 1.6-3.9l-.5.8c-.7-.1-.2-1.2 0-1.4 0-.6-1-.1-1.4-.3.3.9.8 1.2.3 2.2-.6-.6-1.5-.8-1.4-1.9-.9.1-.5 1.5-1.6 1.4-.2-.9-.3-1.2-1.1-.8.6-.7.5-1.7.2-2.8h-1c.4-1.6-1.1-1.3-1.1-2.5h1.4c.2-1-.8-1.7 0-2.5.7.1 1 .7 1.4 1.1 1.1.4.5-.8 1.4-.6-.3-1.1.1-1.2-.3-2-1 0-.5 1.3-1.6 1.1-.4-1.3-.1-1.8-1.9-1.4l1.3-.9-1.1-.3c.2-.4.7-.6 1.4-.6-.5-.9-1-.1-2.2-.3-.1-.5-.6-.7-.5-1.4 1 1 1.1-.2 1.1-1.7-1.6.3-1 2.9-2.5 3.3-.2-1.6-.4-3.1-2.2-3 .2-.5.5-.9 1.3-.8.8-.2.6.6.9.8.6-.5 1.5-.8 1.6-1.7-1.7.6-2.6.6-3.6-.8 1.1.4.9-.6 1.6-.6 0-.9-.8-1.8-.3-2.5.6.6 1.3 1.1 2 1.7 0-.5.2-1.4.5-2.2.7.2.7 1.1.9 1.9 1.3.1 1.2-.8 2.5-1.1.4 1.3 1.5-.7 2.5.5l-.8-1.9c.6-1.2 2.3.6 1.9 1.4l.9-.3c-.5-.5-.9-2.2-.3-3l.9.5-.5.8c.1.5.6.7.5 1.4 1-.9.9-2.7 1.9-3.6.9.2.3 1.9 1.1 2.2 1 .1.6-1 1.6-.8.3.9-.8.4-.8 1.1l.3.8c.6-.3.8-.8.8-1.7 1.6.7.5-.4 1.4-1.1 0-.7-1.2-.1-1.7-.3-.2-.8.6-.6.6-1.1.9-.3.4.9 1.1.8l.3-.8h-.8l.5-.6c-.5-.8-2-.8-2-2.2q2.25 0 3.3-.3c.1-1.4-1.5-1.3-1.1-3 .7 0 1.4 0 1.4.8l-1.2-.3c.4.6.8 1 1.4 1.4-.7-1.2.6-.9.3-2.3.5.6 1.2 0 1.4-.6l.6 1.4c1.9.3 2.5.5 3.6 0-.6-.6-1.2-1-1.4-1.9 1-.1 1.5.3 2.2.5-.5-.7-1.2-1-.8-2.5-1.2.3-.8 2.2-2.8 1.7-.2-1.4 1.3-1.2 1.6-1.9-1.1.2-2.3.3-3.9.3-.2-1.5 1.4-1.2 1.4-2.5-1.2-.2-.6 1.5-2 1.1v-2.2c-.7.5-.8 1.5-1.9 1.7-.5-.4.5-1.2-.5-1.4.4-1 1.9-1 2.5-2-.3-.7-1.9.1-2.2-.5 0-.8.5-1.2 1.4-1.1-.2-.7-1.1-.6-.8-1.6 1.1-.5 2.5.5 3-.9 1.3-.2.8 1.5.6 2.2 0 .6 1 .2 1.4.3V60c.7 1 1.7 1.8 3.3 1.1.2.9-.5.8 0 1.4.4-.4.7-1 1.4-1.1 1-.1 1 1.5 2 .5-.8-.3-1.4-.8-2.2-1.1.2-.5.5-.9 1.4-.8-.4-2 .3-.4.3-2.5 1.6-.2 1.1 3 2.8 1.9-.5-.8-1.1-2.8.6-2.8-.1 1.6 1 .6 1.4.8-.5-.3-.6 1.4 1.4.6.2-.4-1.1-.7-.3-.9-.7-.4-1.2-.9-2.2-1.1l1.1-.6c-1-1-1.4.7-2.2 0 .7-.9 2.1-1.3 3-2-.2.8.4.7.3 1.3.5-.5 1.5-.7 1.4.5.8-.3-.1-1.1 0-1.6-.3.2-.7.4-1.4.3.5-1 .8-1.7.8-2.4-1.1-.2-.7 1.1-1.7 1.1 0-1.2.7-1.7 1.1-2.5-.9-.2-1 .4-1.9.2 0-1.5 1.3-1.5 1.9-1.7-.4-.8-.4-1.7 0-2.5 1.7.5 1.6 2.6 3.1 3.3.6-.1 0-1.5.5-1.7-.1-.6-1.3-.2-1.1-1.1 1.3.1 2-1.5 3.3-.5.8-.3-.2-.9 0-1.4.7 0 1.3.2 1.7.6.7-.3.7-1.4 1.4-1.7.8.7 1.4 1.6 1.4 3.1.7.1 1.1-.1 1.4-.3l-.6-.8c.9-.2 2.6-.3 3.6 0 .2 1-.3 1.2-.5 1.7.3.5 1.7.5.8 1.3 1-.8 1.9.4 2.8.5l.2-.9-1.6-.2c-.6-.1.3-1 .8-.8-.1-1.3-1.5-1.8-.9-3.1.9.2 1.5.8 1.7 1.7 1.6-.1.6-2.7 2.5-2.5-.7 1.4.3 1.8-.3 2.5m-.9.6c-.2-1 .6-1 .5-1.9-1.2-.3-1.1 1.6-.5 1.9m15.2 54.4c1 .3 1.1-1.3.3-1.4-.3.4-.4.8-.3 1.4M85.1 47.5c.6.5 1.4-.4 1.4-1.4-1 0-1.1.9-1.4 1.4m-4.2-.5c.5-.5.4-2-.3-2.2.1.8-.8 2 .3 2.2m-2.5.3 1.1.3c.1-1-.3-1.6-1.1-1.6.2.8.2.5 0 1.3m14.8.4.5-.3c.1-.6.1-1.3-.5-1.4.2.8-.9 1.4 0 1.7m-2 1.2c-.3-1.2.9-.9.8-1.9l-1.1-.3c-.2.6-.7 2.1.3 2.2m-13.3-1c-.2-.9-2.2-1.3-2.2 0 1 .1 1.9.4 2.2 0m-5 .9c0-.7-.1-1.1-.5-1.4-.5.4-.3 1.4.5 1.4m22.4.6c1.3-.1.7-1.2 1.1-1.7-.8.1-1.2.7-1.1 1.7m-14.1.7c1 .7 1.7-.8 2.2-1.4-.6.4-1-.7-1.1 0 .8.4-1.1.6-1.1 1.4m-5.5-.8.6.6c0-.6.7-.3.5-1.1-.6-.2-1.1 0-1.1.5m10.8 1.3c0-1.1-.1-1.9-1.2-2-.1 1.2.4 1.8 1.2 2m-3.1-.3c-.2 1.3 1.8.9 2 .3-.7-.5-1.1-.7-2-.3m13.4-.1c.3 1 0 1 .3 2 .7.1.6-.5 1.4-.3.3-1-.9-.5-1.1-1.1.7.1.7-.6.8-1.1-.7-.1-.9.4-1.4.5m-20.3 1.6c.8 0 1.2-.5 1.1-1.4h-.8zm2.8.2.8.3c-.1-.6.5-.6.3-1.4l-.8-.3c.1.7-.5.6-.3 1.4m14.7-.1c.4-.1 1.1-1.5 0-1.4-.2.2-.7 1.3 0 1.4m-19.7.5c.1-.9-1.1-1.8-1.7-1.1.6.3.4 1.5 1.7 1.1m16.4-.2c1.1.2.9-1.1.3-1.4-.3.4-.4.8-.3 1.4m-4.8.6c.1-.8 0-1.5-.8-1.4-.2 1 .3 1.2.8 1.4m-4.7.6c.1-.5.6-.7.5-1.4l-.8-.3zm9 .2c.3-.8.2-1.6-.6-1.9 0 .7-.2 1.9.6 1.9m6 1.6c-.5-.9-.4-.6-.3-1.9-1.2 0-.9 1.2-1.7 1.7l-.3-.5c.4-.7 1.2-1 1.4-2h-1.1c-.4.7-.1 2-1.4 2 .4-.4.6-2.3-.3-2.3-.1 1.1-.8 2.8-.2 3.6.1-.2.9-.9.9-.3l-.6 1.4h.9c.5-.6-.1-1.8.2-2 .4 1 .6.4 1.4.8.1-1 .4-.6 1.1-.5m-1.9 1.7c1.2.2 1.5-.5 1.9-1.1-1-.6-1.3.4-1.9 1.1m4.7-2.5c.6-.2.4-1.8-.3-1.7.3.7-1 1.7.3 1.7m1.4 0c.9.3 1.4-1.1.8-1.4 0 .7-1.2.3-.8 1.4m-9.7 2c-.3-.5-1.1-1.9-1.6-1.1.5.2.6.8.6 1.7-.5 0-2.4.4-1.4 1.7h.5c.2-1.7 1.9-1.8 3-2.5-.4-1.3.5-2.4-.9-2.8-.1 1.3.3 2 .6 2.8-.6-.6-.3-.1-.8.2m-6.6-2c.5.1.2 1.1 1.1.9v-.9c-.6.3-1-.8-1.1 0m2.2.3c-.1-.3-.4-.5-.3-1.1h-.8c-.2 1.4.9 1.1 1.1 1.1m-10 1c.1-.7 1-.6.8-1.4H76c.2.4-.3 1.4.3 1.4m21.1 1.4c.1-1.3-.3-2-.8-2.5-.2 1.3.2 2.1.8 2.5m-8.9-1.8h-1.7c-.3 1.2 2 1.2 1.7 0M99 57.1c.8 0 .5-.5 1.1 0 0-.5.7-1.6 0-1.9.1 1.1-1.1.8-1.1 1.9m-14.4-1c-.1 1.1 1.9.4 1.9 0-.5-.5-1.3-.1-1.9 0M75 57.9c.6.1 1-.1 1.1-.5-.5 0-1-1.5-1.4-.6.3.2-.1.4.3 1.1m2.7.3c-.4.4-.5 1.9.6 1.6 0-1.6.3-.1.9 0 .6-.9-1-1.2-1.5-1.6m2.2.2c-.1-.6.3-1.9-.3-1.9-.4 1.4-.5.9-1.7.5-.2.8.4.8.3 1.4 1-.6.6-.3 1.7 0m5.3 0c1.2 0 1.7-.7 2.2-1.4-1.5-.3-1.9.5-2.2 1.4m7.7-1c-1.2-.7-2.9-.5-3.1 1.1.7.5 1.5-.7 1.9-1.1.1.7.6 1.2 0 1.7.5 0 1.8-.6 1.1-.9-.8.8.1-.1.1-.8m-19.4 1.8c-.1-.8 1.4-.3 1.4-1.1-.4-.1-.5-.4-1.1-.3 0 .5-1 1.2-.3 1.4m1.7.3c.7.1 1.6-1 .8-1.4 0 .7-1 .6-.8 1.4m6.1.5c1.2 1.1 2.1-1.5.9-1.9-.1.9-.7 1.3-.9 1.9m-.8-1.9c-.3.6-.8 1.3-.8 2.2 1-.2 1 0 1.7-.6-.4-.4 0-1.7-.9-1.6m19.1 1.8c.4-.4.4-1.4-.3-1.4-.2.7-.7 1-1.1 1.4 0-.7-.1-1.4-.8-1.4-.2 1.1.3 1.6.3 2.5-1-.4-2.6-.9-2.8.6 1.1.3 1-.6 1.9-.6.3.9-1.4 1.4-.5 2 1.2-.6 3.7-2.9 3.3-.3q0-.75-.9-.6c-.1.7.5.6.3 1.4.8-1.2 1.5.5 2.5-.3-.8-.4-2.1-1.6-1.4-2.5 0 .7.5 1 .8 1.4-.5-2 2.1-1 2.5-2-1.1-1.1-2.3.9-3 0l1.3-1.4c-1.2.3.3-.5-.5-.5-.6.5-.3 1.4-1.6 1.7m-12.5 1.2c-.2-.9.3-1 .3-1.7-.4.1-1-.9-1.1-.3.5.4-.2 1.7.8 2m6.7-1.7h2.5c-.5-.7-2.1-.8-2.5 0m13.9.7c-1.3-.3-1.6.5-2.2.8-.3-.8-1.1-.4-.5-1.4-1-.2-1.1 0-1.7-.8.2 2.9 3.2 2.6 4.4 1.4m-2.3-.3c.5.5 1.4 0 1.1-1.1-.7 0-1.1.4-1.1 1.1m-34.6 1.5c.3-.8.3-1.7-.6-1.9-.3.7-.2 1.5.6 1.9m18.6-.5c.1-.8 1.2-.5 1.4-1.1-.8.2-.8-.4-1.4-.3.1.5-.9 1.2 0 1.4m-15.6.4 1.7.6c.4-1 1.9-.8 1.9-2-1.5.8-2.2.9-3.6 1.4m9.2.2c.2-.7 1.2-.4.8-1.7H83c.1.5-.8 1.4 0 1.7m-4.7-.2c-.7-.5-2.1.3-1.9 1.4 1.4-.1 1-2 2.2-.8.1-.8.3-1.3.8-1.7h-1.1c-.3.5.8.9 0 1.1m6.9.2c.9.1 1.1-1.3.2-1.4zm-16.9.1c0-.6-1.2-1.5-1.6-.8.6.2.5 1.1 1.6.8m12.2.2c-.7-.3.5-1.2-.9-1.1-.4 1.4.8 2 .3 2.5.7-.2 1.6-1.9 1-2.5zm-8.8.9c1 .2 1.8-1.5.8-1.7-.2.8-1.1.6-.8 1.7m-10.6.9c.1-1-.2-1.7-.8-1.9-.1 1-.1 1.9.8 1.9m41.3-1.1c.4-.5 1.3-.3 1.4-1.1h-2zm-45.4.9c.1-.9-.3-1.3-1.1-1.1 0 .7.3 1.1 1.1 1.1m24.4.1 1.1-.6c-.5-.1-.2-1-1.1-.8zm4.1-1.2c.1.7.3 1.2.9 1.4-.2-.9.4-.8.3-1.7zM78 64c.2-.7.9-.8 1.1-1.4-.7-.9-2 .7-1.1 1.4m4.7-.6c-.3.4-.1 1.9.9 1.9.1-1.1-.2-1.7-.9-1.9m1.4 1-.1-1.7c-.4 0-1.4-1.2-1.3 0h.5c0 1.1.5 1.3.9 1.7m-20.5 0c1.1.3 1.4-1.6.5-1.7-.2.5-.7.7-.5 1.7m4.7-.4c0-.7 1.1-.3.8-1.4l-.8.1c-.1.1-.7 1.3 0 1.3m4.7.6c.2-.4 1.7-1.7.3-2 .2.7-.7 1.4-.3 2m1.7 0c.6 0 1-.1 1.1-.6l-.8-.3.2-.8c-1.2-.5-.8 1.3-.5 1.7m28.3-.8v-1.1l-1.2.3c.8-.2.3 1 1.2.8m-23.8 2.1c-.2-1 .6-1.1.5-1.9-1.3.2.4-.8-.5-.9-.6.6-1 2.3 0 2.8m-7.8-1c1 .2 1.2-.5 1.1-1.4h-.8c.1.6-.5.6-.3 1.4m25.8-.3c.9-.1 1.3-.5 1.4-1.4h-.8zM67.5 64c-.1-.6-1.2-.1-1.7-.2-.1 1.1 1.7 1.5 1.7.2m12.2 1.3 1.4-.5-.5-.3.5-.9c-1 .2-1.1 1-1.4 1.7m11.9-.1c.2-.2 1.2-1.7 0-1.6.1.4-.8 1.4 0 1.6m15.3.7c-.1-.6-.3-1.2-.8-1.3-.2 1.6 1 1.7 0 2.8 1.7.4 2.4-1 3.3.2-.3-.9.8-1.9 0-2.5l-1.1 1.4c-.7-.5-1.1-3.2-1.4-2.7 0 .4.7 1.8 0 2.1m1.4-.3c.8.3 1.1-1.4.8-1.4-.3.5-1.1.4-.8 1.4m1.6-.5.8.2.5-1.9c-1 0-.8 1.1-1.3 1.7m-48.2.7c.6-.6 0-1.5-.6-1.7zm42.7-2.1c-.2 1 .6 1 1.1 1.3-.4-.6.7-1-.1-1.1-.1.9-.3-.5-1-.2m7.5 1.6.8.3c-.1-.7 1.3-1.3.5-1.7-.4.5-1.1.7-1.3 1.4m-43.6 1.2c.5-.4.8-1.5 0-1.9-.2.5-1 1.7 0 1.9m6.2-.9-.3 1.1c.9.1.8-.7 1.1-1.1-1.1.2-.5-1.3-1.7-1.1-.7.8-1.3 2.5 0 3 .1-1.1.4-1.3-.3-1.9.7.4 1-.7 1.2 0m1.6.3c.8 0 1-.6 1.4-1.1l-.8-.3zm-18.6-.1c.7 0 1.3-.2 1.7-.6-.8-.3-1.4-.2-1.7.6m24.7.3.3-1.1-.8-.3c-.1.7-.1 1.4.5 1.4m13.3-.4c.1-.7-.1-1.2-.8-1.1-.1.8.1 1.2.8 1.1m-8 1.2c-.2-.7.6-.5.6-1.1l-.9-.5c-.1.6-.7 1.5.3 1.6m-28.8-.6c.1.5.1 1.2.8 1.1-.3-.7.8-1.3 0-1.7zm2.2 1.4c-.2-.9.8-.5.5-1.4l-.5-.5c-.7.6-1.2 1.4 0 1.9m8.3-.6c.9.1 1.1-1.4.3-1.4.1.7-.5.6-.3 1.4m44.3-.1c-.1-.9.9-.6.6-1.7-1-.1-1.6 1.5-.6 1.7m-20.7.1c.8.1.8-.7 1.1-1.1l-.8-.2c-.3.3-.5.7-.3 1.3m11.6-1.2c-.2.9.9.4 1.4.6.2-1-1-1-1.4-.6m5.8 1.1c1 0 1-.8 1.4-1.4-1 0-1.9.8-1.4 1.4m-44.1 1c.2-.9-.3-1-.3-1.7h-1.2c.2.9 1 1.2 1.5 1.7m11.9-.1c.4-.5 1-.7.8-1.7H78c-.2.2-.5 1.5 0 1.7m6.2-.7c-.1-.5-.1-1.2-.8-1.1-.6.5 0 1.1.8 1.1M62 69.1c.1-.4 1.4-1.8 0-1.9zm40.4-.9c.8-.2 1.3-.5 1.7-1.1-.9-.5-1.8-.2-1.7 1.1m3.4 1.3c.6-.1 1.8.3 1.9-.3-.3-.3-1.9-.5-1.9.3m.5-1.9c-.7.2-1-.1-.9-.8-1.2.7-2.1 1.5-1.6 2.8.4-.4.3-1.3 1.4-1.1l-.3.8c1-.1 1.5-.6 1.4-1.7m-24.1 1-.3-1.1h-.3l-.3-.3c-.3.8-.1 1.3.9 1.4m18 1.5-.6-.8 1.1-.3.3 1.1c.2-.6.9-.7 1.1-1.4-1.3.5-1.2 0-1.2-1.4-1.2.4-.8 1.9-2.2.9-.1 1-.1 1.4.3 2.4.4-.7 1.2 0 1.2-.5m9.5-1.4c1-1.1 1.2 0 2.5-.6-.7-.1-.8-.8-1.7-.8-.2.5-1.2.3-.8 1.4m-45.2-.2-.9-.3c.1.9.3 1.8 1.1 1.9-.1-.6.4-2-.3-2.2v.6zm44.6 1c.1-.8-.1-1.4-.6-1.7-.3.5-.5 2 .6 1.7m-35.7.6c.9.4 1.3-1.8.3-1.6 0 .6-.5.8-.3 1.6m-1.1.6c1.4.1.7-1.8 0-2-.5.8-.2 1.4 0 2m5.5-.9c.8 1.2-.5 1.3-1.1 2 2.2-.5 1.5 1.8 3.6 1.3-.2.8.4.8.3 1.4 1.2 0 1.7.7 2.5 1.1-2.1-2.3-2.4-5-4.5-6.9.1.7-.1 1.2-.8 1.1m-1.4 1.1c.9.1.9-.6.8-1.4h-.8zm6.1 1.9c-.8-.5-2-3.2-1.9-2.8.3 1.1 1.2 3 1.9 2.8m2.8 3.3c.3-.9-1.1-1.4-.3-1.9.7 1 .5 3 1.4 2.5-.7-2.7-2.2-4.5-3.9-6.1-.3.9 1.5 1.2.9 1.7-1-.5-1.4-1.8-2.2-2.5 1 2.4 2.8 4.1 4.1 6.3m12.5-4.3c.8-.7.3-1.4.6-2.2-1.1.2-1.3 1.6-.6 2.2m-29.1 0c1 0 1.4-.4 1.4-1.4-1 0-1.1.9-1.4 1.4m43.8-.4c.9.1 1.1-1.3.3-1.4-.3.3-.4.7-.3 1.4m-23.6 2.7c1.4-.2 1.3-2.6.5-3.6-.4 1-.3 2.5-.5 3.6m10.8-2.3c.4-.5 1.6-.2 1.6-1.1-.6-.8-2.2.7-1.6 1.1m-11.1 1c.3-1.1-.5-2.4-1.1-1.7.6.3.3 1.6 1.1 1.7m-18.8.4c1 .1 1.5-1.8.5-1.9-.2.5-.6 1-.5 1.9m25.4-1.9c-.1 1.1 1.9.4 1.7-.3-.8-.2-1 .3-1.7.3m32.8.5h.8c-.1-.5.3-1.4-.6-1.1zm-62.4 0c-.2 1 1.3.3 1.9.6.1-1.3-1.2-.8-1.9-.6m25 .9 1.1.3c.1-.8 0-1.5-.8-1.4zm-16.1 1c1.6.3 1.1-1.4.2-1.7.1.7-.4.9-.2 1.7m42.1-.4c.1-.4 1.1-1.3.3-1.7-.2.6-1.5 1.3-.3 1.7m-48.7 1.3c.3-.6 2-2 .2-2.2-.1.5-.9 1.8-.2 2.2m24.6-2.2c-.2.9.6.9 0 1.4l.8.3-.3-1.9zm6.1 1.4c-.3-.6-.1-1.7-1.1-1.6-.1.9.6 1.2 1.1 1.6m2.3-.4c-.1-.8-.6-1.2-1.4-1.3-.1.9.9.8 1.4 1.3m3 .3c-.2-.5.3-1.6-.3-1.7-.4.4-.5 1.7.3 1.7m-38.5.1c.6.4 1.6-.4 2.2-.9-1 .1-2.5-.3-2.2.9m47.9-.2c.1-.6 1.5 0 1.4-.8-.7-.9-2.1.5-1.4.8m15.5.2c.8 0 1.2-.5 1.1-1.4-.7 0-1.2.5-1.1 1.4m-52.9.4c.7.1.9-.3.8-1.1-.7-.1-.9.4-.8 1.1m11.6-.9c-.1.7.2 1.2.6 1.4.1-.6.7-.8.5-1.7zm2.3 1.1.8.5c.4-.6.9-1.8-.3-1.9-.2.9.3 1 .3 1.6-.4.2-.7-1-.8-.2m-26.1 1.3c.4-.4 1-.7 1.1-1.4l-.9-.2c0 .4-.8 1.4-.2 1.6m52.4-1.5c.1.6.3 1.2.9 1.4.1-.4-.3-1.4.3-1.4.1.4.9 1.4 1.1.6l-.6-1.1c-.9-.3-.7.8-1.7.5m8.3 1c.2-.2.7-1.9-.3-1.7.1.9-.7 1.5.3 1.7m-51.3 1c-.1-.8.3-1.9-.6-2-.3.5-.5 2.3.6 2m-1.6 0c0-.5.9-1.8-.3-1.7-.4.4-.5 1.7.3 1.7m20.5.1.8-.6c0-.8-.7-1-1.1-1.3.2.6-.3 1.8.3 1.9m37.1.5c.2-.3 1.5-1.3.3-2.2-.6.2.2 1.7-.8 1.4 0-.8 0-1.7-.8-1.7-.8 1.3.4 2 1.3 2.5m-70.6-.2c.9.3 1.5-1.1.8-1.4-.3.5-1.2.4-.8 1.4m6-1.1.3 1.1c.8 0 .8-.7.8-1.4zm23.4 1.7c.2-1.1-.5-1.2-.9-1.6-.1 1.2.7 1.8.3 3 1.1-.2.6 1.3 1.7 1.1.1-.5 1.1-1.5.2-2 0 .7-.6.7-.8 1.1-.3-1 1.3-1.5.5-1.9-.1.3-.7 1.2-.8.5.7-.2 1.1-2.2.8-2.5-1 .6-.3 1.9-1 2.3m5.5-1.2.8.5c.4-.4.5-1.9-.6-1.6zm34.4 1.1c-.1-1-.4-1.8-1.4-1.9-.3 1.3.6 2.5 1.4 1.9m2.4-1.4.3.5c.7-.3 1.9-.2 2.2-.9-.9 0-2-.5-2.5.4m-70.9 1.7c1 .3 1.6-1.1 1.1-1.4-.3.6-1.2.5-1.1 1.4m49.6-.7c.7.1.7-.6.8-1.1h-.8zm5 .2c1.1.4 1.8-.9 1.1-1.4-.3.6-1.2.5-1.1 1.4m-16.1-.1c-.3-.3-1.5-1-2-.3.6.1 1.4 1.2 2 .3m27.2.6c.9-.2.9.5 1.4 0-.1-.8-1-.9-1.4-1.4zm8.1.5c-.1-.9 1-1.8 0-2-.6.5-.8 1.6 0 2m-71.8 4.8c.9.2.6-.8 1.4-.5l.6.8-.8.9-.3-1.4c-.2.4-.4.9-1.1.9.1-1.3-.4-1.8-.8-2.5-.2 1.2-.2.5-1.1 0-.3 1.3.6 2.5 1.1 1.4 0 .7-.3 1.2-.5 1.7.8.3 1.3-.7 1.7.8 1.4-.2 1.6.6 2.5 0-.6-.7-.5-1.9 0-2.8.2.4.7.6 1.4.5-.3-1.4-1.7-1.4-.3-2.5-.8 0-1.4.8-1.9.3-.4.7.7 1 0 1.1l-.6-.5c.5-.9 1.6-1.2 2.2-2-1 .3-.5-.8-.6-1.4h-.6c-.6.9 0 .6.3.9 0 .9-.8 1-1.4 1.1l-.3-.8h.8c0-.8-.2-1.4-.8-1.6.3 1.3-1.1 2.5 0 3-.9.3.1.7-.5 1.1-.5-.5 0-2-1.1-1.9l-.3 1.1H60c.6 1 2 .7 1.3 2.3m31.6-3.6c.9-.1 1.8-1.2.8-1.7l-.5.8c-.3-.9.3-1 .2-1.7h-1.1c-.4 1.5 1.2 1.8.6 2.6m2.1 1.1c.3-1.4 1.2-.6 2-.3 0-1.1-.2-1.6.8-1.1-.4-1.2-2.4-.9-2.8-2.2l-.5.3c-.1 1.3 1.5.9 1.9 1.7l-.8.6c-.2-.8-.5-.2-.8-1.1-.3.6-.9.9-.8 1.9.9.2.4-.9 1.1-.8.2.4-.9.8-.1 1m9.2-2c0-.5.9-1.8.2-1.1-.9 1.5-1.7 4.6-1.9 5.8l.6-.8c-.1 2.3-1 3.5.3.8.7-1.4 1.9-3.4 1.6-5.6.4 0 .6-1.4.3-.5zm-39.1.6 1.1-.3-.3-1.4c-.2.6-.8.8-.8 1.7m9.5-.1c.2-1.3-.6-1.7-1.7-1.7.2.9.8 1.5 1.7 1.7m-18.3.4c0-1.1 1.4-.6 1.4-1.7-1.3-.3-2.3 1-1.4 1.7m28.8-.3c.1-.5 1.4-1.1.5-1.7l-.3.5-.6-.5c-.1.8-.1 1.2.4 1.7m45.1-1.2v.5c.8-.1 1.4-.5 1.6-1.1-.6-.2-1.2-.1-1.6.6m-2.2 1.2c.4-.1.5-.4 1.1-.3.2-.9-.6-.9-.9-1.4-.5.5 0 .7 0 1.4zm-59.8.8c.8.2 1.7-1.7.5-1.7-.1.6-.7.8-.5 1.7m4.4.2c.2-1 .5-1.7-.9-2 .2.9.3 1.7.9 2m39.9-.6c.2-.2.8-1.9-.3-1.7.2.5-.3 1.7.3 1.7m-53.5 1c0-1 .2-2.2-1.1-1.9.3.7.2 1.9 1.1 1.9m23.1.1c-.8.1-.3-1.1-1.1-.8.2.7-.1 1-.8.8.6-.4.2-3.1-.6-2 .6 1-1.6 1-.3 2.2h-1.4c.2.7-.1 1-.8.8.1.4-.3 1.4.3 1.4.3-1.9 2.8-1.4 4.7-2.2l.3.5c.2-.6-.4-1.9-.6-1.1zm-1.4-1.1c1.1-.2 1.6.5 1.9-.3l.3 1.1h.3l.3.5c-.1-1.3.4-.3.8-.8V78h-.6c-.8-.1.2 1.5-.5 1.4-.1-1.7-2.2-1.4-2.5-.2m9.9 1c0-.5.9-2.3-.3-2.2-.2.7-.4 1.8.3 2.2m35.2-.3c.3-1.1.8-1.1.8-2-.9 0-2 1.6-.8 2m9.4-1.4c.7-.3 1.3 1 1.7.3l-1.1-.8zm-69.8.8.6.8.8-.5c-.5-.2-.8-.9-1.4-.3m35 3.8c-.4-.5-.1-1.7-.8-1.9.8 2.3 1.2 6.2.9 8 .5-.2-.1-1.4.8-1.1-.4 1-.1 4.7 0 1.7.7-1.1 0-2.5.5-3.3.7-.2-.2 1.3.5 1.1.1-.6.6-2.3.3-2.5l-.5.8c.6-2.1-.3-4.2-1.4-4.4-.2-1 .4-1.1.2-2-.8.4-1-1.3-1.4-.5.2 1.3 1.2 3.2.9 4.1m13.8-3.4c.6-.1 1-.5 1.1-1.1-1-.1-1.6.6-1.1 1.1m-36.8 1.4c.3-.4.5-1.9-.3-1.9-.4.4-.6 2 .3 1.9m14.6.2c.6-.5.5-1.5 0-2.2-.4.6-.9 1.7 0 2.2m-8.3-.2c.8.2.7-.4 1.4-.3l-.2-1.4c-.2.8-1.2.7-1.2 1.7m15-.4c0-.9-.3-1.3-1.1-1.4-.2 1.1.6 1.1 1.1 1.4m30.7.3c.2-.4 1.3-1.9 0-1.9-.2.4-1 1.6 0 1.9M89 80.8l1.1.3c.1-.7-.2-1.2-.5-1.4-.1.5-.8.3-.6 1.1m23.8.1h.8c-.1-.5.3-1.4-.6-1.1zm-16.6 1.2c.4-.5 1.2-1.9-.3-1.9.2.5-.3 1.8.3 1.9m15.8-.7c.3-.9-.9-1.9-1.4-1.1.4.4.7 1 1.4 1.1m-17.8.7c.1-.8 1.6-.3 1.1-1.7-1.2-.4-1.3 1.6-1.1 1.7m22.8-.2.5-.3c-.2-.4.3-1.4-.3-1.4-.2.3-1 1.3-.2 1.7m-40.5.9c0-1.1-.3-1.7-1.1-1.9 0 1 .2 1.9 1.1 1.9m5.6.6c1.3 0 1.2-1.9.5-2.5 0 .9-.2 1.7-.5 2.5m-31.6-.6c-.1-.5.4-1.6-.6-1.4-.5.4-.4 1.6.6 1.4m48.2-.7c0-.8-.7-.9-1.4-1.1-.4 1.3 1.1.6 1.4 1.1m-10.8.6c.6-.1 1-.5 1.1-1.1l-.8-.3c-.3.4-.4.8-.3 1.4m-33.3.6v1.3c1.1-.3.3-1.9 1.9-1.1-.1-.6.5-1.9-.5-1.7-.3 1.3-.6.9-1.4 1.5m53.3-.7c.9.1 1.3-.4 1.4-1.1-1.1-.3-1.1.5-1.4 1.1m26.8 0c.7-.1.9-.7 1.1-1.4-.7.1-1.6.8-1.1 1.4m-59 .2c-.5-.2-.4-1.1-1.4-.8-.1.7 1 1.6 1.4.8m38 .3.3-1.1-.9-.2c0 .6.2 1 .6 1.3m11.1 1.2.8-.3.3.6c.4-1.6.1-2.7-1.4-3 .1 1.5-.3.1-1.1.2 0 1.1.3.8 0 1.7.9-.5.9.3 1.4.8m-67.9-.2c.8-.1 1.1-.5 1-1.4h-.8c-.2.3-.3.8-.2 1.4m8.8.2c.3-.5-.8-.9 0-1.1.3.6 1.7 1.7 1.9.5-.6-.5-1.4-.8-2.2-1.1-.1.7-.6 1.6.3 1.7m9.7-.4c-.3-.7-2-1.5-2.5-1.1.5.8 1.1 1.4 2.5 1.1m9.5 0c.8.1.8-.7 1.1-1.1l-.8-.2c0 .5-.6.5-.3 1.3m12.2-.1c.1-.8 1.2-.7 1.3-1.4H97c-.1.2-.6 1.3.1 1.4m-32.5 1.3c-.1-.8.3-2.1-.6-2.2-.6.8.1 1.9.6 2.2m14.2-.3c.3-.3 1-1.6.2-2h-.6c.2.6-.3 1.8.4 2m44.3-.7c.2-1-.2-1.4-.8-1.7 0 .8-.1 1.8.8 1.7m10.5-.4c.4-.4.4-1.6-.6-1.4.1.7.1 1.4.6 1.4M49.7 85c1.1.4 2.1-1.6.8-1.7-.4.5-.6 1.1-.8 1.7m7.7 1.3c1.3 0 1-2.6 2.2-1.7l-.5-1.4c.2 1.1-.6 1.1-1.1 1.4-.2-.4 1.1-.7.2-.8-.5.9-1.3 1.2-.8 2.5m29.7-2.5.6.8c.2-.5 1.5-1.3.3-1.6 0 .6-.9.3-.9.8M76.5 85c.4-.4 1.5-1 .8-1.6h-.8c.4.8-.5 1.6 0 1.6m8.1-.3c0-.8 0-1.5-.9-1.4 0 .9 0 1.5.9 1.4m33.5.3c0-.9.3-2.2-.8-2-.1 1 .2 1.7.8 2m-45.1.1c-.8-.1.4-.5 0-1.1-.8 0-2 1.3-.8 1.7l.6-.5h.2zm46.3-.7c-.5 1.1 0-1.1-.6-.8 0 1.2-.4 2-1.1 3.1l-.3.3c1.4-.1 2.6-1.6 2-2.6m-.3 2.2c1 .1 1.6-.3 1.7-1.1-1.2-.3-1.4.5-1.7 1.1m13.5-2.1-.3-1.1c-.7.4-.9-.1-1.1.3.8 0 .3 1.2 1.4.8m-58.4 1.1c.1-.6 1-.5.8-1.4-1-.4-1.6 1-.8 1.4m38.5-1.7c-.7.4 0 2.2-1.4 1.9.1-.6.7-.8.5-1.7l-.8-.3-.3 1.1c.1-.9-.7-.8-1.1-1.1.3 1.7.5 1.4-.3 2.7 1.1.3.7-.8 1.4-.8.2.5-.3 1.6.3 1.7.6-1.4.9.5 1.4.8.1-.4.4-.5.3-1.1-.6.1-1 0-1.1-.5.3-.7 2.1-1.5 1.1-2.7m3 2.2-.3-.2c.4-.6.5-1.3.8-1.9-1.5-.3-1.4 2.6-.5 2.1m-55.9.7c1.2 0 .8-1.7.3-2.2 0 .9-.6 1.2-.3 2.2m60.9-2.4c-.1.9 1.9 1.2 2 .2-.8-.4-1.1-.6-2-.2m-73.7 3.7c1.5-.2 1.4-1.9 1.9-3-.6.9-1.7 1.5-1.9 3m28.8-1.7c.2-.3.4-.8.3-1.4l-.8-.2c-.8.4.5 1.1-.3 1.4h-.3c.4.1.5.4 1.1.2m41.6-.9c-.8.2.2-1.3-.6-1.1-.2.6-.8.9-.8 1.7l.8 1.1c.5-1-.8-1.7.6-1.7m-72 1.5c1.3 0 1.5-.9 1.9-1.7-1.2.1-1.6.8-1.9 1.7m16.3-.2c.3-.2.8-1.9-.3-1.6zm1.9-.5c.2-.7-1-1.5-1.4-.8.5.3.7 1.5 1.4.8m20.8.3.8-.8c-.1.6.1 1 .6 1.1.2-1.1.8-.5 1.4-.8v-.8c-1.1.8-3.5-1.4-2.8 1.3m21.9-.2c.4-.5.6-1.1.8-1.7-1-.3-1.4 1.4-.8 1.7m-29.7-.8.3 1.1c1 .3 1.1-1.4.2-1.4zm35.8.8c1.3.2 1.6-.7 1.9-1.4-1.3-.2-1.2 1-1.9 1.4m10.6-.6c.6 0 1.3-.1 1.9-.1.1-1.3-1.9-.8-1.9.1m-81.3 2c1 .1 1.8-1.8.8-1.9-.2.7-.9.9-.8 1.9m8.3-.6c.3-.6 1.2-.5 1.1-1.4-.7 0-1.9.8-1.1 1.4m30 0c0-.7.4-.9.5-1.4l-.8-.3zm-40.7.7c0-.8 0-1.7-.9-1.6 0 .7-.2 1.7.9 1.6m33.5-.9 1.4-.6c-.5-.1-.5-.8-1.4-.5zm17.5-.2c-.1-.7-.4-1-1.2-1-.1.8.3 1.2 1.2 1m-38 2.6c.9.2.9-.4 1.4-.6-.2-1-.1-2.4-1.4-2.5.5 2.1.7 1.2 0 3.1m12.2-2.8c.1.8.7 1 1.1 1.3.3-.9 0-.6 0-1.6zm30.2.5h.9c0-.7.5-.9-.3-1.1-.1.6-.9.4-.6 1.1m9.1.5c-.2-.6.5-1.9-.6-1.6.3.5-.3 1.9.6 1.6m-44.3 2.3c.2-.7.8-.8.8-1.7-1.1.1-.5-1.5-1.4-1.6l-.3.2-.3.3c1.3.7.8 1.6 1.2 2.8m62.9-3.1c-.3.6-.5 1.1-.6 1.7 1.2 0 1.3-1.7 2.2-.5.4-.4.5-2-.3-2h-.5c.2 1-.2 1.5-.8.8m-35.2 1.5c.6-.2.3-1.8-.3-1.7-.2.2-.7 1.9.3 1.7m17.7-1.9c-1.8 1.7 1 2.1 0 0m-42 2.6c.4-.5.3-2.1-.6-2-.6.7.1 1.6.6 2m43.1-1.5v1.1c1-.3.7-.6 1.9-.3.1-.8-.1-1.4-.6-1.7.4 1.7-.9.3-1.3.9m-57.3 1.1c.7 0 1.1-.4 1.1-1.1-.9-.1-1.3.3-1.1 1.1m6.9.5c.1-.5.6-.7.6-1.4l-.8-.3c-.4.4-.5 1.7.2 1.7m16.9-.4c0-.6.7-.4.5-1.1l-.8-.3c0 .7-.6 1.2.3 1.4m15.8-1c.4 0 1.1 1 1.4.3-.3-.5-1.1-1.4-1.4-.3m31.9 1.7c.1-1.1-.8-1.3-1.4-1.6.4-.4 2.4.5 2.5-.9-1.6.5-3-.6-3.3 1.2 1.6-.5.7 1.6 2.2 1.3m-30.5-.3c.8 0 1.8-1.4.8-1.6.2.9-.9.6-.8 1.6m25.5-.2c.9.4 1.3-1.9.3-1.7-.3.3-.3 1-.3 1.7m9.7-.2c.5-.2.6-.9.5-1.7h-.8c.4 1-.8 2 .3 1.7m-54.3 1.4c.3-.4.5-2-.3-2-.1.6-.7 1.9.3 2m46-1c.8.3 1.2-1.2.5-1.4-.1.6-.7.5-.5 1.4m-7.2.1 1.1.3c-.3-.9.7-.5.5-1.4-.8.1-1.3.5-1.6 1.1m22.7-.5c.6.6 1.4 0 1.4-.8-.9-.1-1.1.3-1.4.8m-67.1 2c.5-.5.4-2.1-.5-2 0 .9-.2 2 .5 2m36.9-.6c1.3 0 1-1.3.8-1.7-.1.7-1.1.6-.8 1.7m4.7-.4h1.7l.3-.8c-.7.1-1.1-.1-1.4-.3zm21.7 1c1 0 .8-1.3.8-2.2-1.1.3-1.2 1.1-.8 2.2m-80.2.1c1 .2.7-1 1.1-1.4-.7.1-1.1.5-1.1 1.4m28.3-.8c.7 0 1.5 0 1.4-.8-.8-.1-1.2.4-1.4.8m2 .6h.8l.3-.9-.8-.5c0 .6-.6.6-.3 1.4m-36.9.9.8.3c.3-.5 1-1.7 0-2-.1.7-.7 1-.8 1.7m71.5-1.3c.7 0 1.1-.4 1.1-1.1-.9-.1-1.3.3-1.1 1.1m-62.6 0c.1 1.2 2.2.4 2.2-.3-1-.1-1.6.2-2.2.3m35.7-.5-.3 1.1c.6 0 1.6-1 1.1-1.1zm1.1 1.3.9.6c-.2-.6.4-1.9-.6-1.7zm6.1.3c.9.1.9-.6.8-1.4h-.8zm32.7-.6c.1-.6 1-.3 1.1-.8-.5-.9-2.1.2-1.1.8m-57.9.8c-.1-.8 1.7.2 1.6-.5-.3-1-2.4-.3-1.6.5m42.4-1.2c-.1 1.3 1.5.7 1.9.2-.7-.4-1.1-.6-1.9-.2m6.4.2c.6.1.1 1.2.8 1.1-.1-.9.7-1.4-.3-1.7zM73 92c.8 0 .8-.7.8-1.4H73zm33-.6c.8 0 1-.6 1.4-1.1-1.1-.2-1.1.6-1.4 1.1m-55.2.2c.6-.2 2.2.5 1.9-.5h-1.9zm25.8.7c.8.3 1.2-1.2.5-1.4-.2.3-.7.5-.5 1.4m-21.8 4.9c-1-.2-3.2.8-1.9-.3-1-.3-3.4-.5-3.9-.2 3.8 2.1 9.5.5 11.6-.1-1.4-.2-4.1-.6-5-.2l1.7.5c-3.2.4-3-1.9-5-1.9l-.3.3.3-1.1c-1.2-1-3.5-2.2-4.5-2.4 2.3 1.7 4.5 3.7 7 5.4m39-5.1c1.1.3 2.2-.8 1.1-1.1-.1.6-.9.6-1.1 1.1m29.1 0h1.4l.3-1.4c-.4.6-1.4.7-1.7 1.4m-53.5 1.1c.5-.4 1.5-1 .8-1.7-.8-.2-1.1 1.6-.8 1.7m53-.8-.3-1.4c-.4.4-.4 1.4.3 1.4m2.7-.3c1 .1 1.6-.2 1.7-1.1-.7.2-1.6.2-1.7 1.1M55 93.6c.9.1 1.5-1.5.5-1.7.1.8-.6.8-.5 1.7m7-.4c.2-.3.4-.7.3-1.3-1.2-.3-1.2 1.3-.3 1.3m-15.6 1.3c.3-1.2-.6-2.6-1.1-1.9 1.1-.1-.6 2 1.1 1.9m62.3-2.8c1.1 2.4-1 1.5-1.9 2.2-.4-.9.3-1.4-.6-1.4-.9.2-1 1.2-1.4 1.9-.1.7 1.1.2.8 1.1-1 .2-1.2.8-2.2.3l-.3 1.1c3.6-.4 6-.5 8.9-1.7.2-.8-.8-.5-.5-1.3-1.1-.2-1.1.7-2.3.5.4-1.3.9-2.1-.5-2.7m24.2 1.1c.4-1-.8-1.8-1.1-1.1.5.3.5 1.1 1.1 1.1m-73.7 1c0-.7-.1-1.4-.8-1.4 0 .7 0 1.4.8 1.4m4.1.2c.5-.4 1-1.8-.3-1.7.2.9.1 1.5.3 1.7m21.9-.2c1.1.5 2.1-1.5.8-1.6 0 .8-.7.9-.8 1.6m28-.2c.7.1.7-.6.8-1.1-.4 0-1.1-.9-1.1-.3zm-68.5.9c0-1 0-1.9-1.1-1.6.1.8.2 1.6 1.1 1.6m27.8.6c.2-.6.6-1.1.5-2l-.8-.3c.2.7-.4 2 .3 2.3m52.6-2.4c0 1 1 .7 1.7.5-.1-1-1-.8-1.7-.5M74.4 95c.3-.6.8-.8.8-1.6h-.8c.3.7-.8 1.3 0 1.6m6.1 0c.1-.5.6-.7.5-1.4l-1-.3c0 .8-.2 1.6.5 1.7m11.4.2c.5-.4.7-1.6 0-2-.2.9-1 1.4 0 2m-10.3.1c.1-.5.8-.5.5-1.4l-.9-.3c.3.5-.2 1.6.4 1.7m17.8-.5c1.1.2 1.3-.6 1.4-1.4-.9.2-1.3.6-1.4 1.4m-42.7.1c.8-.1 2.2.3 2.2-.5-.7-.6-2-.2-2.2.5m5.3.8c.1-1-.2-1.5-.9-1.7 0 .9-.2 1.9.9 1.7m34 0c-.2-.6-.8-.8-1.4-1.1-.5 1.4 0 2.3 0 3.9 1 .1 1.7-.2 2-.8-.5-.4-.8-1-.9-1.6.7-.4 1.2.8 1.4 0-.4-.4-.7-2.6-.8-1.9 0 .7.6 1-.3 1.5m-36.8 0c.8-.1 1.3-.6 1.4-1.4-.9.2-1.3.6-1.4 1.4m10.3-.1c.1-.5.8-.5.5-1.4h-.8c.1.4-.4 1.5.3 1.4m24-.2V94h-.8c-.1.8 0 1.5.8 1.4m27.5-1.3c-.2.7.6.5.8.8l.2-1.1zm-19.1 1.8v-1.7c-.1.5-1.2 1.8 0 1.7m-56.8 0c.5.5 1-.1 1-.9-.7-.1-1.2.1-1 .9m59.6-.6c.3-.9-.4-.9-1.1-.8-.2.8.5.7 1.1.8M90 98.2c.2-2.2-1-3-2.5-3.3.4 1.5 2 1.9 2.5 3.3m29.3-2.2c.1-.7-.1-1.2-.9-1.1 0 .7.2 1.3.9 1.1m-6.9.9c.9-.1 1.5-.5 2.5-.5 0-2.1-2.4-.6-2.5.5m-67 1.5c1.5 0 1.5-1.5 2.2-2.3-1.6.1-1.9 1.1-2.2 2.3m41.3 2.9c.3-2-2.7-3.4-4.2-3.6 0-.5.7-1.6 0-2-.1.8-.6 1.3-1.4 1.4-.2-.6 0-1.7-1.1-1.4.4 1.2-1.1 1.5-1.9 1.4 1.5 2.8 6.3 2.2 8.6 4.2m-22-3.4h.9c.1-1-.3-1.5-.9-1.7.2 1-.5 1.2 0 1.7m53.8-1.5c0-.6-1-.1-1.4-.3-.4 1.4 1.3 1.2 1.4.3M61.7 99c1.3.3.3-1.8 1.3-1.9-1 .1-1.4.7-1.3 1.9m4.4-.8c.9.2 1-.5 1.1-1.1-.8-.2-.7.6-1.1 1.1m3.6.2c.9.3 1.2-1.2.5-1.4-.3.4-1.2.7-.5 1.4m2 .3c2-.3 3.8 1.2 5.3.5-1-.4-2.5-1.4-2.3-2.2-1.1.3-2.1.9-3 0-1 .6.1.5 0 1.7M121 98c.8 0 .8-.7.8-1.4-.8-.1-.8.6-.8 1.4m3.3-.4c1.1.3 1-1 1.7-.3 0-.7-.6-.7-1.1-.8zM47 99.4c1 .4 1.1-1.6.5-2-.5.3-.6 1.1-.5 2m2.2-.5c-.1-.5-.1-1.2-.8-1.1-.1.7-.1 1.3.8 1.1m36.9-.4c.7.5 2.4 1.5 2.2 1.4-.5-.6-2.2-2.7-2-2.2.7.9 0 .5-.2.8m24.1.1c1.9.5 4.7.6 5.5-1.1-1.8.4-4.1-.3-5.5 1.1m-46.3.4c.8.8 1.4-.3 1.7-.9-.9.1-1.4.3-1.7.9m27.5 1.1c0-.9-.2-1.7-.6-2.2.1.9-.3 2.2.6 2.2m24.9-1.3c.8.2 2-.6 1.2-1.1-.2.7-1.7-.1-1.2 1.1m-62.9.8.3.3.3.3c.2-.8.9.1 1.4 0-.1-.6 0-1.1.5-1.1.4.5 1.8 1 1.6-.3-2 .1-3.3-.6-4.1.8m15.8-.1c.6-.2 1.8.3 2-.3l-.6-.5.6-.3zm29.4 2.5c.1-.6 2.1-1.7 1.4-1.4-.5-.3-.9.8-1.1 0 1.3-.9 2.6-1.8 4.1-2.5-2.3.6-4.8 2.3-4.4 3.9m24.1-2.7c.7-.2 1.3-.4 1.4-1.1-.8.2-1-.3-1.7-.3-.1.7.1 1.1.3 1.4m-57.4 1.6c.1-.5.5-.6 1.1-.6-.1-.5.3-1.6-.3-1.7.3 1.2-1.6 1.6-.8 2.3m1.7-.8c1 .4 1.6-1 .9-1.4zm30.2 1.1c.3-1 2-2 1.6-2.8-.4.9-2 2-1.6 2.8m-53.2-.4c.1-.8 1.5-.4 1.1-1.7h-.8c.2.8-1.2 1.4-.3 1.7m1.6.3c1 0 2-1.5.6-1.6-.2.5-.7.7-.6 1.6m-3.3-.3h.8c-.1-.5.3-1.4-.6-1.1zm16.1.2c1.1.1 1.6-.6 1.9-1.4-1.2-.1-1.4.8-1.9 1.4m51.9.4c-.5-.7.3-1-.3-1.4h-.8c.1 1.2.5 2 1.4 2.2.1-1 .9-1.3 1.1-2.2l-.9-.3c0 .8-.1 1.4-.5 1.7m-53.9-1c-1.8 2.1 1 2.4 0 0m-1.9 2.3c.3-.6.9-.9 1.1-1.7l-.8-.3c.1.7-1 1.6-.3 2m18.6-1.3c-.3 0-2 0-1.1.3 1.6 0 3.1-.1 3.9-.9-1.5.6-2.8-.9-4.4 0 .7.5 1.2-.4 1.6.6m-9.4 1.5c0-.7.2-1.6-.6-1.7-.4.5-.5 1.9.6 1.7m50.1-2.1h-1.1c-.2 1 1.4 1 1.1 0m-63.1 1.9c.8-.2 1.9-.1 1.9-1.2-1 .1-1.6.6-1.9 1.2m16 .4c.7.1.7-.6.8-1.1l-.8-.6c-.3 1 0 .7 0 1.7m19.7-.4c1.5.6-1.3-1.1-2.8-1.1h-.3c1.3.4 2.7.9 3.1 1.1m6 1.1c.4-.9 3.6-1.1 3.7-2.4-.5.7-4 1.9-3.7 2.4m-31.7-1.2c-1-.3-.8 2 .3 1.4.1-.8-.5-.7-.3-1.4m1.6.9c-.4-.5-.4-1.5-1.4-1.4-.2 1.2.6 2 1.4 1.4m-18 .7c.1-.4.9-1.4.3-1.7-.2.3-1.1 1.3-.3 1.7m7.2.2c.2-.7.9-.8 1.1-1.4-.7-.9-1.9.9-1.1 1.4m8.3-.1c-.1-.9-.2-1.7-1.1-1.7-.1 1.1.6 1.3 1.1 1.7m10.5-1.2-.3 1.1c1.5-.1 2.6-.5 3.4-1.4-1.3-.2-1.7.5-3.1.3m18.3 7.4c.7-.8 1-2 1.1-3.4-1.2-.4 0 1.7-.8 1.7-.1-1.7.1-3.2-.1-4.2-.3-2.1-.2-1.4-.5.3-.2 1 0 5.4-.7 6.8.2-1.2.1-1.8 0-2.2-.6-3.7-1.6-5.3-2.8-6.7.9 1.2 1.3 6.7.9 7.7 1.4-1.3.7-3.9.3-4.9.9 2.8 1.2 7.2.1 8.7-1.1 2-1.5 7.3-1 9.1.4-.6.5-4.7 1.6-7.4.7-2.1.7-2.3.8-4zM49.5 105c.3-.4.9-.6.8-1.4h-.8c-.1.1-.6 1.3 0 1.4m8.6.4c.2-.7.5-1.6-.5-1.6-.4.4-.1 1.4.5 1.6m6.7-.3c-.1-.7-.1-1.5-.9-1.4-.5.6.3 1.2.9 1.4m-3.6 0 .3.6 1.9-.6c-.8 0-1.9-1.1-2.2 0m5.8.8c0-.8 0-1.5-.8-1.3-.1.7 0 1.4.8 1.3m-11.3.7c.6-.6.1-1.5-.6-1.7 0 .7-.1 1.6.6 1.7m3-.9c-.1.9.4 1.1.8 1.4-.2-1 .1-2.4-.3-2zm32.9 19.2c1.3 2.3-3.5-3.1-2-4.2.4 1.1 2.1 3.4 3 3.9-.3-1.7-2.6-4.1-2.8-5.3l-.3.8c-.5-6.4 4.3-8.3 2-14.7.8 7.3-3.4 13.7.1 19.5m-3.1-11.2c-.3 2-1.4 4.6-.9 6.7-1.7-.4-.3 2.1-2.5 2.2.7 1.2 1.2 1.6.8 2.6 1-.2 3.4-.3 1.7-.8l1.1-.3-2.8-.9.8-.2-.5-.3c.6-.3.6-1.2 1.1-1.7-.3 1.6 2.9 3.4 2.3 4.5 1.2.4 1.6 2.1 3 .8-.6-.1-1-.4-1.9-.3-3.6-5.7-2.1-9.6-2.2-12.3m-26.8-5.3c.3-1.7.4-.5 1.4-.3V107c-.4-.4-1.2-.3-2-.3.1.8 0 1.7.6 1.7m27.4 3.5c1.3-.5 2.9-4.2 1.9-4.6.1 1.6-1.1 3.8-1.9 4.6m4.5-.9c-.2-1 .8-2.5.2-2.5l-.5 1.1c-.2-.9-.1-2.3-.9-2.7.2.7-.3 2.2.4 2.5l.3-.5c.1.7.1 1.7.5 2.1m1.4-1.1c.2-.6.4-.6.8-.3v-.8c-.9-.4-1.6.8-.8 1.1m-4.6 9.1c-.1-3 .7-4.5.7-6.6-1 2-1.5 3.8-.7 6.6m2.7-6.1c-1.7 2-3.4 6.8-1.8 10.3-1.2-3.9 1.5-8.9 1.8-10.3m-.5 3.9c-1.2 3.2 1.2.4.8-1.1-.2.7-.6.7-.8 1.1m-8.5 6.4c.3-.4 1-1.7.3-2.2 0 .8-1.1 1.7-.3 2.2m0 2.6c.5-.5-.1-1.8-.8-2.6.1 1.2.3 1.9.8 2.6m11.4.4c-.8 0-1-.6-1.4-1.1v-.3c-.9.8.9 2.1 1.4 1.4m-9.5.9c.2-.2 1.3-.9 1.4-.3-.7 0-2 1-1.4 1.4h.8l.3.3c-.1-.7-.7-1.3.6-1.1v-.8c-.4-.7-2.6 0-1.7.5m2.2-1.6c-.9-.1-2.7.2-1.9.8.3-.6 1.7-.2 1.9-.8m3.4 1.9c1.3-.1 2.1 0 1.1.8.8 0 1.7-1.1 2 0l-.9.5c.5.2 1.6-.4 1.7.3l-.5.5h1.1l.3 1.1c-.6.4-1.1 1-1.6 1.4 2.8.2 5 1.8 7.5.7-1.8-.8-3.3-.9-5-.8.5-.9 1.6-.1 1.9-.6-.5-.1-.7-.6-1.4-.6-.3.5-1.5 1.7-2.2.9.3-.8 1.9-.3 2.2-1.1-.9-.8-2.9-2.4-2-3.3-1-.1-3.5-1.1-4.2.2m-1.4.8c-.3 0-.5-.4-1.4-.3.9 1.2 4.2.5 1.4.3m9.4 1.6c.3-.4 1.6-.4.9.3l1.3-.6-.8-.3-3.3-.5.5.3-.5.2c1 .4 1.9-.8 2.5 0-.1.2-1.4.5-.6.6m-12.2.4c-.7-.5-.8-.2-.6-1.4h-1.1v.9c-1.9.3-4.1 1.7-4.4 2.8.2-.5.7-.7 1.4-.8l-.3.5c.4-.1 1.5.3 1.4-.3-.5.2-1.2-.5-.6-.5.2.6 1.7-.1 1.9.5-.8-1.3.7-.5 1.1-1.1l-1.7-.6c1.1-.2 3.7.3 2.9 0m1.4-.8c.9.2 2.9 0 3.3-.3-1.5-.5-3.1.3-3.3.3m16.4.9c.6.9.6.3 0-.3-1.1-.2-1.9-.8-3-1v.2c1.1.2 1.7 1 3 1.1m-16.1-.1c1-.1 5.1.2 3.9-.3-1.3.2-4.7-.4-4.2.6zm13.9 1.2c-1.7 0-2.1-1.4-4.2-1.1.5 1.4 3 2.2 4.2 1.1m-13.3-.4.2.3c1.5-.2 1.3-.3 2.8 0 3.9.1-2.1-1.1-3-.3m-5.5 1.4c3.6 0 7.3-.1 9.9-.3-4-.3-6.9-.4-9.9.3m20.2-.1c-.9.1-1-.5-2-.3-.3.9 1.9.7 2 .3" clip-rule="evenodd"/><path fill="#fff" d="m36.3 25.8-1.4-.2.1-1.4 1.4.2zM34.2 27.8l-1.4-.2.1-1.4 1.4.2zM38.8 23.8l-1.4-.2.2-1.5 1.4.3zM41.6 21.7l-1.4-.3.2-1.3 1.4.2zM44.4 19.8l-1.3-.3.2-1.4 1.4.3zM47.3 18l-1.3-.4.4-1.4 1.3.4zM50.3 16.4l-1.3-.5.4-1.4 1.3.5zM53.4 14.8l-1.3-.5.4-1.4c.5-.3 1-.1 1.4.5zM56.5 13.4l-1.3-.6.5-1.4c.5-.2 1.1 0 1.3.6zM59.7 12.1c-.5.2-1-.1-1.3-.7l.6-1.3 1.3.6c.2.6 0 1.2-.6 1.4M62.9 11l-1.2-.7c-.2-.6 0-1.2.6-1.3.6-.2 1.1.1 1.3.7zM66.2 9.9c-.5.1-1.1-.2-1.2-.8-.2-.6.1-1.1.7-1.3l1.2.7zM69.6 9l-1.2-.8c-.1-.6.2-1.1.8-1.3.5-.1 1 .2 1.2.8.1.7-.2 1.2-.8 1.3M72.9 8.3c-.5.1-1-.2-1.1-.9-.1-.6.2-1.1.8-1.2s1 .2 1.2.8c0 .7-.3 1.2-.9 1.3M76.3 7.7c-.5.1-1-.3-1.1-.9s.3-1.1.9-1.2 1 .3 1.1.9c0 .6-.3 1.1-.9 1.2M79.7 7.2c-.5.1-1-.3-1.1-.9s.4-1.1.9-1.2c.6 0 1 .3 1.1.9.1.7-.3 1.2-.9 1.2M83 7l-1-1c0-.6.4-1.1 1-1.1.5 0 1 .4 1.1 1-.1.6-.4 1-1.1 1.1M86.6 6.8c-.6 0-1-.4-1-1s.4-1 1-1.1l1 1c-.1.6-.4 1.1-1 1.1M90 6.8c-.6 0-1-.5-1-1.1s.5-1 1-1c.6 0 1 .4 1 1.1 0 .5-.4 1-1 1M93.4 6.9c-.6 0-1-.5-.9-1.1 0-.6.5-1 1.1-1s.9.5.9 1.1c-.1.6-.5 1-1.1 1M96.8 7.1 96 6c0-.6.5-1 1.1-1q.9.15.9 1.2c-.1.6-.5 1-1.2.9M100.2 7.5c-.6-.1-.9-.5-.8-1.1s.5-1 1.1-.9l.8 1.1c0 .6-.5 1-1.1.9M103.7 8.1c-.6-.1-.9-.6-.8-1.2s.6-1 1.2-.8c.6.1.9.6.7 1.2-.1.5-.6.9-1.1.8M107 8.7c-.5-.1-.8-.6-.7-1.2s.6-1 1.2-.8.8.7.7 1.3c-.1.5-.6.9-1.2.7M110.3 9.5l-.6-1.2 1.3-.8c.5.2.8.7.7 1.3zM113.6 10.5l-.6-1.3c.2-.6.7-.9 1.3-.7l.6 1.2c-.2.7-.7 1-1.3.8M116.9 11.6l-.5-1.3c.2-.6.8-.8 1.3-.6.6.2.8.7.6 1.3-.3.5-.8.8-1.4.6M120 12.8l-.4-1.3 1.3-.6c.6.2.7.7.5 1.4-.2.5-.7.8-1.4.5M123.2 14.2l-.4-1.4 1.3-.5c.5.2.7.8.4 1.4zM126.3 15.7l-.4-1.4 1.4-.4.4 1.3zM129.3 17.3l-.3-1.4 1.3-.4.4 1.4zM132.3 19l-.3-1.3 1.4-.4.3 1.4-1.4.4zM135.2 20.9l-.3-1.4 1.5-.3.2 1.4zM138 22.9l-.2-1.4 1.5-.2.1 1.4zM140.7 25l-.1-1.4 1.4-.1.1 1.4zM143.3 27.3v-1.5l1.4-.1.1 1.5zM145.8 29.6l.1-1.5h1.4v1.4zM148.2 32l.2-1.4h1.4l-.1 1.4h-1.5M150.6 34.5l.2-1.4 1.4.1-.2 1.4h-1.4zM152.8 37.2l.2-1.5 1.5.2-.2 1.4zM154.9 39.9l.3-1.4 1.4.1-.2 1.5zM156.9 42.7l.3-1.4 1.5.2-.4 1.4zM158.8 45.6l.4-1.4 1.4.2-.4 1.5zM160.5 48.5l.4-1.3 1.4.4-.4 1.3c-.5.3-1.1.2-1.4-.4M162.2 51.5l.4-1.3 1.5.4-.5 1.4zM163.7 54.6l.5-1.3 1.4.5-.5 1.3zM165.1 57.8l.6-1.3 1.3.5-.6 1.3zM166.4 61l.6-1.3 1.3.6-.6 1.3zM167.4 64.2c-.1-.5.1-1 .7-1.2l1.3.6-.7 1.3c-.6.1-1.1-.1-1.3-.7M168.4 67.5l.8-1.2 1.3.7-.7 1.2c-.7.2-1.2 0-1.4-.7M169.2 70.8l.8-1.1c.6-.1 1.1.2 1.2.7l-.7 1.2c-.6.1-1.2-.1-1.3-.8M169.9 74.2c-.1-.6.2-1.1.8-1.1.6-.1 1.1.2 1.2.8s-.3 1.1-.9 1.2c-.5 0-1-.3-1.1-.9M170.5 77.6l.9-1.1c.7-.1 1.1.3 1.2.8.1.6-.3 1-.9 1.1-.7.2-1.2-.2-1.2-.8M170.9 81l.9-1.1c.6-.1 1.1.3 1.1.9s-.3 1-.9 1.1-1.1-.2-1.1-.9M171.1 84.5c0-.6.4-1 1-1s1.1.4 1.1.9c.1.6-.4 1-1 1.1-.6 0-1.1-.4-1.1-1M171.2 87.9c0-.6.5-1 1-1 .6 0 1.1.4 1.1 1 0 .5-.4 1-1 1-.6.1-1.1-.4-1.1-1M171.2 91.3c0-.6.5-1 1.1-1s1 .5 1 1c0 .6-.4 1-1.1 1-.6.1-1-.4-1-1M171.1 94.7l1.1-.9c.6 0 1 .5 1 1-.1.6-.5.9-1.1.9-.6.1-1.1-.3-1-1M170.8 98.2c0-.6.5-.9 1.2-.8.6 0 .9.5.9 1.1s-.5.9-1.1.9c-.7-.1-1.1-.6-1-1.2M170.3 101.6c.1-.6.6-.8 1.2-.8.6.1.9.6.9 1.2l-1.1.8c-.7-.1-1.1-.6-1-1.2M169.7 105c.1-.5.6-.9 1.2-.7.6.1 1 .6.8 1.2-.1.6-.6.9-1.2.8-.5-.2-.9-.7-.8-1.3M169 108.4l1.2-.7c.6.1 1 .7.8 1.2-.1.6-.6.9-1.2.8-.6-.2-.9-.7-.8-1.3M168.1 111.7l1.2-.7c.6.2.9.7.8 1.3-.2.6-.7.8-1.3.7-.5-.2-.9-.7-.7-1.3M167.1 115c.2-.6.8-.8 1.3-.6.6.2.8.7.7 1.3-.2.5-.7.8-1.3.6zM165.9 118.2l1.3-.6c.6.3.9.8.6 1.4l-1.3.5c-.5-.2-.7-.7-.6-1.3M164.7 121.4l1.3-.5.6 1.3-1.3.5c-.6-.2-.9-.7-.6-1.3M163.3 124.5l1.4-.4.5 1.4-1.4.4zM161.8 127.6l1.3-.4.5 1.4-1.4.4zM160.1 130.6l1.4-.3.4 1.4-1.4.3zM158.3 133.5l1.4-.2.4 1.4-1.5.3zM156.4 136.4l1.4-.2.3 1.4-1.4.2zM154.3 139.2l1.5-.2.2 1.5-1.4.1zM152.3 141.8h1.4l.1 1.4-1.4.1-.2-1.5zM149.9 144.4h1.5l.1 1.5h-1.4zM147.6 147h1.4l.1 1.5-1.5-.1zM145.1 149.3l1.5.2v1.4l-1.5-.1zM142.6 151.6l1.4.2-.1 1.5-1.4-.2zM139.9 153.8l1.4.3-.1 1.4-1.4-.2.1-1.4zM137.2 155.9l1.4.3-.2 1.4-1.4-.2zM134.4 157.9l1.3.3-.2 1.5-1.4-.4.2-1.4zM131.5 159.7l1.4.4-.4 1.4-1.3-.3zM128.5 161.4l1.4.5-.4 1.4-1.4-.4zM125.5 163l1.3.6-.5 1.3-1.3-.5.4-1.4zM122.4 164.5l1.3.6-.5 1.3-1.3-.5c-.3-.6-.1-1.1.5-1.4M119.2 165.8l1.3.7-.6 1.3-1.3-.6c-.1-.6 0-1.2.6-1.4M116 167c.6-.2 1.1.1 1.3.7l-.6 1.3c-.5.2-1-.1-1.3-.7zM112.7 168.1l1.3.7c.2.6-.1 1.2-.7 1.3-.5.2-1-.1-1.3-.7zM109.4 169l1.2.7-.7 1.3c-.6.1-1.1-.2-1.2-.8-.1-.5.1-1.1.7-1.2M106.1 169.8l1.1.8c.1.6-.2 1.2-.8 1.3-.5.1-1.1-.2-1.2-.8 0-.7.3-1.2.9-1.3M102.7 170.4c.6-.1 1 .3 1.1.9s-.2 1.1-.8 1.2c-.5.1-1-.2-1.1-.8-.2-.7.1-1.2.8-1.3M99.3 170.9l1.1.9c0 .6-.3 1.1-.9 1.2s-1-.3-1.1-.9.2-1.1.9-1.2M95.9 171.3c.5-.1 1 .3 1 .9s-.3 1.1-.9 1.1c-.6.1-1-.4-1.1-1 0-.5.3-1 1-1M92.4 171.5c.6 0 1 .4 1 1s-.4 1.1-1 1.1-1-.4-1-1c.1-.6.4-1.1 1-1.1M89 171.5c.6 0 1 .5 1 1.1s-.4 1.1-1 1.1c-.5 0-1-.4-1-1.1 0-.6.4-1 1-1.1M85.6 171.5c.6.1 1 .5.9 1.1 0 .6-.5 1-1 1-.6-.1-1-.5-1-1.1.1-.6.5-1 1.1-1M82.1 171.3c.6 0 .9.5.9 1.1s-.5 1-1.1 1-.9-.5-.9-1.1c.1-.7.5-1.1 1.1-1M78.8 170.9c.5.1.9.6.8 1.2s-.5 1-1.1.9-.9-.5-.8-1.1c0-.7.5-1.1 1.1-1M75.4 170.4c.5.1.9.6.8 1.2s-.5 1-1.1.8c-.6-.1-.9-.6-.8-1.2 0-.5.5-.9 1.1-.8M72 169.8l.8 1.2c-.2.6-.7.9-1.2.9-.6-.1-.9-.6-.8-1.2.1-.7.5-1.1 1.2-.9M68.6 169l.7 1.3c-.2.6-.7.9-1.2.8l-.7-1.2c.1-.7.6-1.1 1.2-.9M65.3 168.1l.6 1.3c-.1.6-.7.9-1.3.7-.5-.2-.8-.7-.6-1.3s.7-.9 1.3-.7M62.1 167l.5 1.3-1.3.7c-.6-.2-.8-.7-.6-1.3zM58.9 165.9c.5.2.7.8.5 1.3l-1.3.6c-.5-.2-.7-.8-.5-1.4zM55.7 164.5l.5 1.4c-.2.5-.8.7-1.4.5l-.5-1.3zM52.6 163.1l.4 1.4-1.4.4-.4-1.3zM49.5 161.5l.4 1.4-1.4.4-.3-1.4zM46.5 159.7l.3 1.5-1.4.3-.3-1.3zM43.6 157.9l.3 1.5-1.4.3-.3-1.4zM40.8 156l.2 1.4-1.5.3-.1-1.5zM38.1 153.9l.1 1.4-1.4.2-.2-1.4zM35.4 151.7l.1 1.4-1.5.2v-1.5zM32.9 149.5v1.4l-1.4.1-.1-1.5 1.5-.1zM30.4 147.1v1.4h-1.5v-1.4l1.5-.1zM28.1 144.5l-.2 1.5-1.4-.1.1-1.5zM25.8 142l-.2 1.4-1.4-.1.2-1.5zM23.6 139.3l-.2 1.4-1.4-.2.2-1.4 1.4.1zM21.6 136.4l-.3 1.5-1.4-.3.3-1.4zM19.7 133.6l-.4 1.4-1.4-.3.4-1.4zM18 130.7l-.5 1.4-1.4-.4.4-1.3 1.4.3zM16.2 127.7l-.5 1.3-1.4-.4c-.3-.5-.1-1.1.5-1.4zM14.7 124.6l-.5 1.3-1.4-.4c-.3-.6-.1-1.1.5-1.4zM13.3 121.5l-.6 1.3-1.3-.5.5-1.3c.6-.3 1.1-.1 1.4.5M12 118.3l-.6 1.3c-.6.2-1.1 0-1.4-.6l.6-1.3c.7-.2 1.2 0 1.4.6M10.8 115.1l-.7 1.3-1.3-.6c-.2-.6.1-1.1.7-1.3s1.2-.1 1.3.6M9.9 111.8l-.7 1.2c-.6.2-1.1-.1-1.3-.7-.1-.5.2-1 .8-1.2.5-.1 1 .1 1.2.7M8.9 108.4c.2.6-.2 1.1-.8 1.2l-1.2-.7c-.1-.6.1-1.1.8-1.3.6 0 1.2.2 1.2.8M8.2 105.1c.1.6-.3 1.1-.9 1.1l-1.2-.7c-.1-.6.2-1.1.8-1.2.7-.1 1.2.2 1.3.8M7.7 101.7c.1.5-.3 1-.9 1.1l-1.2-.8c-.1-.6.3-1.1.9-1.1.6-.1 1 .2 1.2.8M7.2 98.3c0 .5-.3 1-.9 1.1-.6 0-1.1-.3-1.1-.8-.1-.6.3-1.1.9-1.1.6-.2 1.1.2 1.1.8M6.9 94.9c.1.6-.4 1-.9 1-.7 0-1.1-.3-1.1-.9-.1-.6.3-1 .9-1.1.6 0 1.1.3 1.1 1M6.7 91.4c0 .5-.4 1-1 1s-1-.4-1.1-1c0-.6.4-1 1-1 .7 0 1.1.4 1.1 1M6.7 88c0 .6-.4 1-1.1 1-.6 0-1-.5-1-1 0-.6.4-.9 1.1-.9.6-.1 1 .2 1 .9M6.8 84.5c0 .5-.5.9-1.1.9-.6-.1-1-.5-.9-1.1 0-.6.5-1 1.1-.9.5.1 1 .5.9 1.1M7.1 81.1c0 .5-.5.9-1.1.9-.6-.1-1-.5-1-1.1q.15-.9 1.2-.9c.5.1 1 .5.9 1.1M7.5 77.7l-1.2.8c-.6-.1-1-.5-.9-1.1s.6-.9 1.2-.8c.6 0 1 .5.9 1.1M8 74.3l-1.2.7-.8-1.1c.1-.6.6-.9 1.2-.8s1 .6.8 1.2M8.7 70.9c-.1.6-.6.9-1.2.8s-.9-.7-.8-1.3c.1-.5.6-.8 1.2-.7s1 .6.8 1.2M9.5 67.6l-1.2.7c-.6-.1-.9-.7-.8-1.3.2-.5.6-.8 1.2-.6.7.2 1 .6.8 1.2M10.5 64.3l-1.3.6c-.6-.2-.9-.7-.7-1.3l1.3-.7zM11.6 61.1l-1.3.5c-.6-.2-.8-.7-.6-1.3.2-.5.7-.8 1.3-.6.5.3.9.8.6 1.4M12.8 57.8l-1.3.5c-.6-.2-.8-.8-.6-1.3l1.4-.5zM14.2 54.7l-1.3.4c-.6-.2-.8-.8-.6-1.3l1.3-.4c.7.2.9.7.6 1.3M15.7 51.6l-1.4.4-.4-1.4 1.4-.4.5 1.4zM17.3 48.6l-1.3.3-.5-1.4 1.4-.3.5 1.4zM19.1 45.6l-1.4.3-.4-1.4 1.4-.3zM20.9 42.8l-1.4.2-.3-1.4 1.5-.3.3 1.5zM23 40l-1.4.1-.3-1.4 1.4-.2zM25.1 37.2l-1.4.1-.3-1.4 1.5-.1zM27.3 34.6l-1.4.1-.2-1.5h1.5zM29.6 32.1h-1.4l-.1-1.5h1.5zM32 29.7l-1.4-.1v-1.5l1.4.1zM36.3 131.6c7.3-4.6 14.4-7.7 23.1-8.5-1.2.7-1.8 1-3 1.7-3.7 2.4-5.5 3.8-9.3 6.7.4 3 .5 4.5.9 7.6l.2 1.3c-4.1 1.6-6.2 2.6-10.3 5.5.4-.8.6-1.2 1.1-2.1 2.1-4.1 3.1-6 5.2-9.6-2.6-1.1-4-1.5-6.6-2.1z"/><path fill="#034da1" d="m38.1 146.1-.4-.4.5-1 .6-1.1c2.1-4.1 3.2-6.1 5.1-9.4-2.4-1-3.7-1.3-6.3-2l-1-.3-1-.3.5-.3c8.4-5.3 15.4-7.9 23.3-8.6l.1.6c-1.2.6-1.8 1-3 1.7-3.7 2.4-5.4 3.7-9.1 6.6.1 1.2.3 2.1.4 3 .2 1.4.3 2.6.6 4.5l.2 1.5-.2.1c-4.2 1.5-6.3 2.5-10.3 5.4m-1.2-14.6.8.3c2.7.7 4 1.1 6.6 2.1l.3.1-.1.3c-2 3.5-3.1 5.5-5.2 9.6l-.5 1c3.4-2.4 5.4-3.4 9.2-4.8l-.1-1c-.2-1.8-.4-3.1-.6-4.5-.1-.9-.2-1.9-.4-3.2v-.2l.1-.1c3.7-2.9 5.6-4.3 9.3-6.7.7-.4 1.2-.7 1.8-1-7.1.9-13.5 3.4-21.2 8.1"/><path fill="#fff" d="M139 130.8c2.7 1.3 4.1 1.9 6.7 2.8l1.4.4c-4 2.9-6 4-10.2 5.6l-.2-1.2c-.3-3.1-.5-4.5-.9-7.5-4.1-.1-6.1-.6-10.2-1.6-1.3-.3-2-.5-3.3-.9 8.8-.8 15.9-3.9 23.1-8.5-.5.8-.6 1.3-1.1 2.2-2.1 3.6-3.2 5.3-5.3 8.7"/><path fill="#034da1" d="m136.6 139.9-.1-.3-.1-.6-.1-.6-.2-1.5c-.2-2.1-.4-3.5-.7-5.8-3.8-.2-5.9-.6-10.1-1.7-1.3-.3-1.9-.5-3.3-.9l.1-.6c7.8-.7 14.7-3.2 23-8.4l.9-.6-.5 1-.7 1.4-.4.8c-2.1 3.7-3.1 5.5-5.1 8.7 2.5 1.2 3.8 1.8 6.4 2.6l1.3.4.6.2-.5.3c-4 2.9-6.1 4-10.3 5.6zm-13-11.6c.6.2 1.2.3 2 .5 4.2 1 6.2 1.5 10.2 1.6h.2v.2c.3 2.5.5 3.9.7 6.1l.2 1.4.1.6v.3c3.7-1.5 5.8-2.5 9.3-5.1l-.8-.2c-2.7-.9-4-1.5-6.7-2.8l-.3-.1.2-.3c2.1-3.3 3.2-5.1 5.3-8.9l.4-.7.2-.5c-7.5 4.7-13.9 7.1-21 7.9"/><path fill="#fff" d="M48.9 146.6c-.1-.6-.1-.9-.2-1.6-.6-4.7-.8-7.1-1.4-11.9-.1-.7-.1-1-.2-1.6 29.6-9 59.1 8.4 88.7-.7.1.7.1.9.1 1.6.6 4.8.9 7.2 1.4 11.9.1.6.1.9.2 1.6-29.5 8.9-58.9-8.3-88.6.7"/><path fill="#034da1" d="M118 148.8c-8.3 0-16.7-1.2-24.8-2.3s-16.5-2.3-24.8-2.3c-7.1 0-13.5.9-19.4 2.7l-.3.1-.1-.3c-.1-.6-.1-.9-.2-1.6l-.4-3.3c-.3-2.8-.6-5-1-8.6-.1-.6-.1-.9-.2-1.6v-.2l.2-.1c5.9-1.8 12.3-2.7 19.5-2.7 8.3 0 16.8 1.2 25 2.3 8.1 1.1 16.6 2.3 24.9 2.3 7.1 0 13.5-.9 19.4-2.7l.3-.1v.3l.1 1.2v.4c.4 3.1.6 5.2.9 7.6l.5 4.4.2 1.1.1.7-.2.1c-6 1.7-12.4 2.6-19.7 2.6m-49.6-5.2c8.3 0 16.7 1.2 24.8 2.3s16.5 2.3 24.8 2.3c7.1 0 13.4-.9 19.2-2.6v-.2l-.2-1.1-.5-4.4c-.3-2.4-.5-4.5-.9-7.6v-.4l-.1-.8c-5.9 1.8-12.2 2.6-19.2 2.6-8.3 0-16.8-1.2-24.9-2.3s-16.6-2.3-24.9-2.3c-7 0-13.2.8-19.1 2.6l.2 1.4c.5 3.5.7 5.7 1 8.6l.4 3.4.1 1.2c6-1.9 12.3-2.7 19.3-2.7"/><path fill="#034da1" d="m56 139.4.4 2-4.6 1.2-.1-.2h.2l.4-.3.1-.4-.2-1.1-.9-3.3-.3-1.1-.2-.3-.6.1h-.1l-.1-.2 2.7-.7v.2l-.2.1-.5.2-.1.4.2 1.1.9 3.5.3 1 .3.2h.6l.4-.2.7-.3.4-.5.1-1.3zM60.7 138.5h.2l.2 2.2-4.6.8v-.2h.1l.5-.2.1-.4-.2-1.1-.6-3.4-.2-1-.2-.3h-.5v-.2l4-.7.4 1.7h-.2l-.5-1-.5-.3-.8.1-.8.1.4 2.7.6-.1.5-.2.2-.3-.1-.7h.2l.4 2.4h-.2l-.2-.8-.3-.2h-.5l-.6.1.3 1.7c.1.8.3 1.3.4 1.4l.7.1.4-.1.7-.3.4-.7zM64.7 137.7l-2.1.2-.1.5c-.1.7-.2 1.1-.2 1.3l.2.5.5.1v.2l-1.7.2v-.2l.5-.4.3-1.1.1-.6 1.2-5.1h.2l2.4 5.4.3.7.3.4.5.1v.2l-2.2.2v-.2l.5-.1.1-.3-.3-.7zm-.1-.3-1.3-2.9-.7 3.1z"/><path fill="#034da1" d="M73 140h-1.5c-.3-.2-.7-.8-1.3-1.8l-.6-.9-.4-.5-.3-.1h-.2v1.6l.1 1.1.2.4.5.1h.3v.2h-2.7v-.2h.2l.5-.1.2-.4v-1.1l-.1-3.5-.1-1.1-.2-.3-.6-.1h-.1v-.2l.8-.1 1.3-.1 1.3.2.8.6.3 1-.4 1.2-1.2.6q.3.15 1.2 1.5c.4.7.8 1.2 1 1.4l.9.3v.3zm-4.3-3.6h.6l.6-.1.4-.3.2-.5.1-.7-.3-1.2c-.2-.3-.6-.4-1.3-.4h-.4z"/><path fill="#034da1" d="m78 140.4-3.7-6.8-.2 4.9v.8l.3.3.6.2v.3l-2.1-.1v-.3l.6-.1.3-.3.1-.8.2-3.8-.1-1.1-.1-.3-.6-.1v-.3l1.7.1 3.1 5.7.1-4.2v-.7l-.3-.3-.6-.2.1-.2 2 .1v.2l-.6.2-.3.3-.1.7-.2 5.8zM82.4 136.6l.4.2.2.5-.2.5-.6.2-.5-.3-.1-.5.2-.5zM90.2 139.4l-.3 2.1-4.8-.6v-.2h.2l.5-.1.2-.3.2-1.1.4-3.5.1-1.1-.1-.4-.5-.2H86v-.2l2.7.3v.2h-.8l-.2.3c0 .1-.1.5-.2 1.1l-.4 3.7-.1.9.1.3.6.2h1.2l.5-.4.6-1.2zM95 139.9h.2l-.4 2.2-4.6-.6v-.2h.1l.6-.1.2-.3c0-.1.1-.5.2-1.1l.5-3.4.1-1.1-.1-.4-.5-.2v-.2l4 .6-.1 1.8H95l-.2-1.1-.4-.4-.8-.2-.8-.1-.4 2.9.6.1h.6l.3-.2.1-.7h.2l-.3 2.4h-.2v-.8l-.2-.3-.5-.1-.6-.1-.2 1.7c-.1.8-.1 1.3-.1 1.5l.7.3.4.1h.7l.6-.5zM99 140.1l-2.1-.3-.2.4c-.3.6-.5 1-.5 1.2l.1.5.4.2v.2l-1.7-.2v-.2l.6-.3.6-1 .3-.6 2.3-4.6h.2l1.1 5.8.1.8.2.4.4.2v.2l-2.2-.3v-.3h.6l.2-.3-.1-.7zm0-.3-.6-3.1-1.4 2.8zM103 139.9l-.2 1.5-.1 1.1.1.4.5.2h.2v.2l-2.6-.3v-.2h.6l.2-.3c0-.2.1-.5.2-1.1l.4-3.4.1-1.1-.1-.4-.5-.2h-.1v-.2l.7.1 1.3.1 1.3.3.7.7.2 1.1-.3 1-.7.6c-.3.1-.7.1-1.4 0zm0-.3.4.1h.8l.6-.4.3-.9c.1-.6 0-1-.2-1.3l-1.1-.6h-.4zM108.7 139.9l.5.3.2.5-.3.5-.5.1-.5-.2-.2-.6.3-.5zM116.7 142.5l-.2 2.1-4.8-.3v-.2h.2l.5-.1.2-.4c0-.2.1-.5.1-1.1l.2-3.5v-1.1l-.1-.3-.6-.1h-.1v-.2l2.7.2v.2h-.7l-.2.3-.1 1.1-.3 3.7v1l.2.3.6.2h.4l.8-.1.5-.5.5-1.2zM121.6 142.5h.2l-.2 2.2-4.7-.1v-.2h.1l.6-.1.2-.3c0-.1 0-.5.1-1.1l.1-3.5v-1.1l-.2-.3-.5-.1v-.2l4 .1.1 1.8h-.2l-.3-1-.5-.4-.8-.1h-.8l-.1 3h.6l.6-.1.2-.3.1-.7h.2l-.1 2.4h-.2l-.1-.8-.2-.3-.5-.1h-.6v1.7c0 .8 0 1.3.1 1.5l.7.2h.4l.7-.1.6-.6zM125.8 142l-2.1.1-.1.5c-.2.7-.3 1.1-.3 1.3l.2.5.5.1v.2l-1.7.1v-.2l.5-.4.4-1.1.2-.6 1.4-5h.2l2.1 5.5.3.7.2.4.5.1v.3l-2.2.1v-.2l.5-.1.1-.3-.2-.7zm-.1-.3-1.1-3-.9 3zM127.5 137.5l.9-.2c.8-.1 1.3-.2 1.6-.3.8-.1 1.5 0 2 .2l1.2 1.2q.45.75.6 1.8v1.4l-.4 1.1-.7.7-.8.4-1.1.2-2.5.3v-.2h.2l.5-.2.1-.4c0-.2 0-.5-.1-1.1l-.5-3.4-.2-1.1-.2-.3h-.8zm1.8-.1.6 4.7c.1.7.2 1.1.2 1.3l.2.4h.7l1.2-.4.7-1.1c.1-.5.2-1.2.1-1.9l-.4-1.6-.7-1.1-.8-.5H130z"/><path fill="#274085" d="M58 123.5s.5 4 2.1 5.7c-2 .1-12.9 2.3-12.9 2.3s-.9-1.1 10.8-8"/><path fill="#274085" fill-rule="evenodd" d="M123.6 128.3s8 2.7 12.1 2.4c-1 .3-7.9 2.4-12.6 2.6.5-1.1.9-3 .5-5" clip-rule="evenodd"/><path fill="#034da1" d="M32.9 119.6c.6-.4 1.3-.5 2-.3s1.2.6 1.7 1.3c.3.4.5 1.1.6 2l.1.2h.7l-.1.2-.5.2-.7.4-.5.3-.4.3h-.2l.3-.5.8-1.4-.3-1.5-.9-.7-1.1.1-.5.7c0 .2-.1.8 0 1.7 0 1 0 1.8-.3 2.3l-1.1 1.2c-.6.4-1.2.4-1.9.3-.7-.2-1.2-.6-1.6-1.3l-.4-1.3-.1-.3h-.6l.1-.2.3-.2.4-.2.9-.6.1-.1h.1l-.2.4-.5.7-.2.8.3.8.8.8 1-.1.6-.8c.1-.3.1-.9.1-1.8 0-1 0-1.7.1-2.1zM30.7 110l1 .5c.3.7.3 1.3.1 1.9l-.8 1-.9.5-1 .9.1 1.1 2.6-1.1c.6-.3.9-.4 1-.4l.2-.3-.2-.6v-.3l.1.1.5 1.1.1.2.2.4.3.8.1.2.1.2.2.5v.2l-.3-.4-.4-.4-.5.2-5.8 2.5-.7.3-.1.2.2.5v.3l-.1-.1-.3-.5-.1-.2-.2-.4-.2-.4-.1-.2-.2-.4-.3-.7c-.5-1-.7-1.8-.7-2.2l.3-1 .8-.6c.7-.3 1.4-.2 2.1.4.3.3.6.7 1 1.3h.1c-.3-.8-.3-1.5-.1-2.1q.3-.75 1.5-1.5c.6-.4 1-.6 1.1-.8l.1-.5-.2-.1-.1.2-.2.2-.5-.2zm-4.5 5.3q-1.5.6-.9 1.8l.4.3c.1 0 .5-.2 1.2-.5l1.9-.8c-.2-.6-.6-.9-1-1.1-.4-.1-.9 0-1.6.3M28.3 99.5l.2.2v.1l.2.9.2 1 .1.5.3 1.1.1.3-.1.2-.2-.1-.1-.4-.4-.6-.7.1-6.4 1.6c.7.1 1.8.2 3.4.2l3.9.1.7.1-.3.3c-.1 0-.8.5-2.1 1.3-.5.3-1.9 1.2-4.2 2.6l6.1-1.5.6-.2.2-.2V106l.1.2.2 1.1.2.6.2.6v.3l-.1-.2-.2-.6-.4-.4-.6.1-5.7 1.4c-.6.2-1 .3-1.1.4v.9l-.1.2-.2-.2-.1-.3-.6-2.2v-.1c2-1.2 3.7-2.2 5-3.1l-5.9-.2-.1-.2-.4-1.6v-.2l-.1-.3-.1-.5v-.3l.1.1.1.3.3.6.5.1.4-.1c.2-.1 1.2-.3 3-.8l3.3-.8.4-.3-.1-.7zM27.6 90.8l.1.1v1.5c0 .4.1.9.1 1.6v.5l-.1.2-.1-.1v-.5l-.3-.4h-1l-5.9.3h-.7l-.3.6-.1.3h-.1v-.7l-.1-1v-1.7l.1-.2.1.1.1.4.2.5h.2l6.9-.4.6-.2.1-.8z"/><path fill="#034da1" d="m19.6 82.4.1.7.1.4.8.1 1.4.1c.9 0 2.2.1 3.7.1l2.1.1.2.1c0 .1-.7.7-2.1 1.7s-3 2.2-4.8 3.4h2.1l3.8.1.3-.1.1-.6.1-.5.1.2v.2l-.1.9v1.4l-.1.2-.1-.5-.2-.7-.9-.1-5-.2h-.9l-.8.4-.2 1-.1.2-.1-.2v-2.7l5.7-4.1-4.8-.2-.4.1-.1.4v.5l-.1.1-.1-.2v-.8c0-.8.1-1.3.1-1.4zM26.4 77c.7.1 1.3.5 1.7 1.1s.5 1.3.4 2.1c-.1.5-.3 1.1-.8 2l-.1.2.4.4.1.1-.2.1-.5-.1-.8-.2-.6-.1-.5-.1-.2-.1.5-.1c.6 0 1.1-.2 1.5-.5l.7-1.3-.3-1.2-.9-.6-.8.2c-.2.1-.5.5-1.1 1.3s-1.2 1.3-1.7 1.6l-1.6.2c-.7-.1-1.2-.4-1.6-1s-.5-1.2-.4-2l.5-1.2.1-.3-.3-.3-.1-.1.2-.1.3.1.5.1 1.1.1h.1l.1.1-.4.2-.8.3-.6.5-.3.8.2 1.1.8.5.9-.2c.3-.2.7-.6 1.2-1.3.6-.8 1.1-1.3 1.4-1.5.7-.8 1.2-.9 1.9-.8M24.6 68.7l.1.1-.5.1c-.6 0-1.1.1-1.4.3l-.6 1.1-.1.5 7.2 1.9.4-.1.4-.8.1-.1.1.2-.1.2-.1.3-.3 1.2-.5 2-.1.1-.1-.1.1-.4-.1-.8c-.1 0-.9-.3-2.4-.6l-5-1.3-.1.3q-.3.9 0 1.5l.9 1 .5.3-.2.1-.6-.2c-.8-.3-1.3-.4-1.6-.5v-.2l.2-.9.2-.8c.1-.5.3-1.2.5-2l.3-1.2.2-1 .1-.6c.5.1 1.2.2 2 .3zM31.8 66.7v.2l-.1.1-.5 1.2c-.1.4-.3.9-.5 1.5l-.2.5-.2.1v-.1l.1-.4-.1-.5-.9-.4-5.5-2-.4-.2-.2-.1-.5.5-.2.3-.1-.1.1-.3.1-.4.3-.9.5-.4.2-.5.2-.5v-.1l.1-.1.1.1-.1.4v.5l.2.1 6.5 2.3.6.1.4-.7zM29.3 57.6l.1.1h-.5c-.6-.1-1.1-.1-1.4 0l-.8 1-.2.5 6.7 3.1h.4l.5-.7.2-.1v.2l-.1.2-.1.3-.6 1.1-1 2-.2.1v-.1l.1-.4v-.8c-.1-.1-.8-.4-2.3-1.1l-4.7-2.2-.1.3c-.3.6-.4 1.1-.3 1.4l.9 1.1.4.4h-.2l-.6-.3c-.7-.4-1.2-.7-1.4-.8l.1-.2.4-.8.4-.8c.2-.5.5-1.1.9-1.9l.6-.9.4-.9.2-.6c.5.2 1.1.4 1.9.7zM31.6 49.5l-.1.4-.2.6.2.1 4.4 2.7c1.6 1 2 2.3 1 3.9-.5.8-1.1 1.3-1.9 1.4-.6.1-1.3-.1-2.3-.7l-4-2.5-.5-.1-.5.6-.2.1v-.3l.1-.2.4-.6c.4-.6.7-1.1.8-1.3l.3-.5.1-.2.2-.1-.1.4-.1.6.2.2 4.1 2.3 1.1.6 1.2.2 1-.8.2-1.3c-.2-.5-.8-1-1.7-1.6l-3.4-2.1-.2-.1-.2-.1-.5-.1-.3.4-.4.3v-.2l.3-.5.3-.4.1-.2.2-.3.1-.2zM38.2 44.7v.1l-.5-.1-1.4-.3-1 .8-.4.5 5.8 4.6.4.1.6-.6h.2v.2l-.1.1-.2.2-.8 1-1.2 1.7-.2.1V53l.2-.3.2-.8c-.1-.1-.7-.6-1.9-1.6l-4.1-3.2-.2.3-.6 1.3.6 1.2.3.5h-.2l-.5-.5c-.6-.5-1-.9-1.2-1.1l.1-.1.6-.7.5-.7c.4-.4.8-1 1.3-1.6l.8-1 .6-.8.4-.5c.4.3 1 .7 1.7 1.1zM46.3 42.3l.8.8.6.6.2.2c-1.6 1.5-2.9 2.8-4 3.9l-.7.7-.2.1v-.1l.2-.3.2-.7-.2-.3-4.4-4.4-.6-.6-.3-.1-.4.3-.3.2.1-.3.7-.7c1-1.1 1.9-2 2.6-2.6l.6-.6.5-.5 1 .9.6.5v.2l-.3-.1-1.3-.4-1.5.9-.8.9 2.6 2.5c.6-.6 1-1.1 1.1-1.3l-.4-1.1-.2-.5.2.1.6.7.4.4 1.1 1.1.1.1v.2h-.1l-.3-.2-1-.5-.8.5-.6.6 2.9 2.9.6-.5c.6-.7 1-1.1 1.1-1.2l.3-.7-.1-.7zv-.2zM53.3 34.2c.7 1 1 2 .9 3.2q-.15 1.65-1.5 2.7-1.35.9-3 .6c-1.1-.2-2.1-.8-2.8-1.8s-1-2.1-.9-3.2.6-2 1.6-2.7q1.35-1.05 3-.6c1.1.2 2 .9 2.7 1.8m-1.6 1.5c-1-1.3-1.8-2.2-2.6-2.5l-1.4.1c-.4.3-.6.9-.4 1.6.2.8.6 1.6 1.3 2.6 1 1.4 2 2.3 3 2.6l1.2-.2.5-1.3c-.3-.9-.8-1.9-1.6-2.9M58.8 28.7v.1h-.1l-.3-.3-1.5-.7c-.3 0-.8.2-1.4.6l-1 .6 1.8 3.3.3-.2c.7-.4 1-.7 1.1-.9s0-.7-.3-1.4v-.2l.2.1.1.2.3.6.4.7.6 1 .2.4v.2l-.3-.2-.9-.8-.6.2-.9.5 1.4 2.6.6.7.8-.3h.2l-.1.2-.6.3-1.5.8-1 .6-.1.1H56l.3-.3.4-.5-.2-.4-3.5-6.2-.2-.1-.5.2-.4.1.2-.2.2-.1.8-.5 1.5-.9c.6-.4 1.2-.7 1.6-.9l.8-.4.5-.3c.5.8.9 1.4 1.1 1.7zM67.9 29.2c.3.7.3 1.4-.1 2-.3.6-.8 1.1-1.6 1.4q-.75.3-2.1.3h-.2l-.1.5v.2l-.1-.1-.2-.5-.2-.7-.2-.5-.2-.4v-.2l.4.4 1.2 1H66l.9-.8v-1.1l-.6-.7c-.2-.1-.7-.2-1.6-.3-1-.1-1.7-.3-2.2-.6l-1-1.3c-.3-.6-.3-1.3 0-1.9s.8-1.1 1.5-1.3l1.3-.2h.3l.1-.4.1-.1.2.1.1.3.1.4.5 1v.2l-.4-.3-.6-.6-.7-.3-.9.1-.9.7v1l.7.7c.3.1.9.3 1.7.4 1 .1 1.7.3 2.1.5.5.1.9.5 1.2 1.1M75.2 26.8v.2l.1.8.2.8.2.6.1.2v.1l-.2-.1-.7-.4c-.4.7-1 1.1-1.7 1.3-1 .3-2 .1-3-.4-1.1-.6-1.8-1.5-2.1-2.8q-.45-1.8.3-3.3c.5-1 1.4-1.7 2.5-2h1.5l.6.1.4-.4.1-.2.1.1v.1l.2 1 .2.5.1.6.1.3-.1.2-.3-.4c-.7-1.3-1.5-1.9-2.5-1.6-.8.2-1.2.9-1.3 2-.1.8 0 1.7.3 2.6q.6 2.25 1.8 3l1.4.2c1.1-.3 1.6-1.2 1.6-2.8l.1-.4zM80.1 28.7l-.1.1h-.2l-1.2.2c-.4.1-.9.2-1.6.3l-.5.1-.2-.1v-.1l.5-.1.4-.3-.1-1-1-5.8-.1-.5v-.2l-.7-.2H75V21l.3-.1.4-.1 1-.2.6-.1.5-.1.5-.1h.1l.2.1v.1l-.4.1-.4.2v.2l1.2 6.8.2.6h.8zM86.8 26s0 .4.1 1.1v1c-2.1.1-4 .2-5.6.4l-1 .1-.2-.1.1-.1.4-.1.6-.4v-.3l-.5-6.2-.1-.8-.1-.3H80l-.4-.1.3-.1.9-.1c1.5-.2 2.7-.3 3.7-.3l.8-.1.7-.1.2 1.3.1.8-.1.1-.2-.3-.8-1.2c-.4-.2-1-.3-1.7-.2l-1.2.1.3 3.6c.9-.1 1.5-.2 1.7-.3l.4-1.1.1-.5.1.2v1.5c.1.7.1 1.2.2 1.6v.2l-.1.2h-.1l-.1-.4-.4-1-1-.1-.8.1.3 4.1.8-.1c.9-.1 1.4-.2 1.6-.2l.7-.3.4-.6.2-1.1.1-.2z"/><path fill="#034da1" d="m95.5 20.1-.7.1-.4.1-.1.8-.1 1.4c0 .9-.1 2.2-.1 3.7l-.1 2.1-.1.2c-.1 0-.7-.7-1.7-2.1s-2.2-3-3.4-4.8v2.1l-.1 3.8.1.3.6.1.4.1-.2.1h-.2l-.9-.1h-1.4l-.2-.1.5-.1.7-.2.1-.9.2-5v-.9L88 20l-1-.2-.2-.1.2-.1h2.7l4.1 5.7.2-4.8-.1-.4-.4-.1H93l-.1-.1.2-.1h.8c.8 0 1.3.1 1.4.1zM102.5 26.9v.2l-.2.7-.2.8-.1.6v.2l-.1.1-.1-.1-.5-.7c-.7.4-1.4.6-2.1.5-1.1-.2-1.9-.7-2.6-1.6-.7-1-1-2.1-.8-3.4.2-1.2.8-2.2 1.7-2.9s1.9-1 3.1-.8l1.4.6.5.3.5-.2.2-.1v.2l-.2 1-.1.5-.1.6v.3l-.2.2-.1-.5c-.1-1.5-.6-2.3-1.6-2.5-.8-.1-1.5.3-2 1.3-.4.7-.7 1.5-.8 2.5-.2 1.5-.1 2.7.4 3.5l1.2.8c1.1.2 2-.4 2.6-1.9l.3-.3zM109.6 29.4s-.1.4-.3 1.1l-.3.8-.1.2c-2-.7-3.8-1.2-5.4-1.7l-1-.3-.2-.2.1-.1.4.1.7-.1.1-.3 1.7-5.9.2-.8v-.3l-.4-.2-.3-.2h.4l.9.2c1.5.4 2.6.7 3.5 1l.8.2.7.2-.3 1.3-.3.9-.1.1-.1-.4-.3-1.4c-.3-.3-.8-.6-1.5-.8l-1.1-.3-1 3.5c.9.3 1.4.4 1.7.3l.7-.9.3-.4v.3l-.3.9-.2.6c-.2.7-.3 1.2-.4 1.5v.2l-.1.1-.1-.1V27l-.9-.5-.8-.2-1.1 3.9.8.2c.9.2 1.4.4 1.6.4l.8-.1.5-.4.5-.9.2-.1zM118.3 35.5l-.1.1-.4-.2-.5-.2-1.1-.5-.7-.4-.8-.3-.3-.2.7.2.2.1h.2l.1-.5.1-.8.1-1-.2-.1-.9-.4-1-.4-.8.8-.6.6-.2.2.1.4.5.3.1.2h-.2l-1.8-.9-.1-.1-.1-.2.4.1.6.1.8-.8 1.4-1.4 3.1-3.1.6-.6.4-.3v.6c0 .5-.2 2.5-.5 6.1l-.1 1.4.1.8.6.4zm-2.3-4.2v-.2c.1-1 .2-1.7.2-2.1v-.7l-1.1 1.1-1.1 1.1.2.1.2.1.6.3z"/><path fill="#034da1" d="M129.3 32.8h-.1l-.6-.3-.4-.1-.5.6-.8 1.2c-.5.8-1.2 1.8-2 3.1l-1.1 1.8-.2.1c-.1 0-.2-.9-.4-2.7-.2-1.7-.4-3.7-.6-5.8l-.5.8-.4.7-.2.4-2 3.2v.4l.5.4.4.3h-.2l-.2-.1-.8-.5-1-.6-.3-.2-.1-.2.5.2.7.2.5-.7 2.7-4.2.5-.8v-.9l-.7-.7-.1-.2h.2l.4.3.6.4 1.3.8.7 7 2.6-4.1.1-.4-.3-.3-.4-.3-.1-.2h.2l.2.1.2.1.2.2c.7.4 1.1.7 1.2.8zM133.8 41.7c-.6.7-1.3 1.2-2 1.4-.8.3-1.6.2-2.5 0-.6-.2-1.3-.7-2.2-1.4l-.2-.2-.5-.5-.3-.3-.6-.5-.6-.5-.1-.2.3.1.6.3.5-.5 4-4.8.4-.6-.3-.6-.1-.3h.2l.2.1 1.1.9 1.2 1c1.1 1 1.8 1.9 2 2.9.1 1.5-.2 2.7-1.1 3.7m-1.7-1.3c.9-1 1.3-1.9 1.4-2.6s-.2-1.4-.8-1.9l-.5-.3-.5.3-4 4.8-.5.7.4.5q1.95 1.5 4.5-1.5M141.8 47.7h-.1l.2-.5.5-1.3-.6-1.2-.4-.4-5.6 4.9-.2.4.5.8v.2l-.2-.1-.1-.1-.2-.2-.8-1-1.4-1.5v-.2h.1l.3.3.7.3c.1-.1.7-.6 1.9-1.6l3.9-3.4-.2-.2-1.2-.8-1.4.2-.5.2v-.2l.5-.4c.6-.5 1.1-.8 1.3-1l.1.1.6.7.5.7c.3.4.8.9 1.3 1.6l.8.9.7.7.4.4c-.4.4-.8.9-1.4 1.5zM142.7 56.1l-.9.6-.7.5-.2.1c-1.1-1.8-2.2-3.4-3.1-4.7l-.6-.8v-.2h.1l.2.3.6.3.3-.2 5.1-3.5.7-.5.2-.3-.2-.4-.1-.4.3.2.5.8q1.35 1.8 2.1 3l.5.7.4.5-1 .8-.6.5h-.2l.2-.3.6-1.3c0-.5-.2-1-.6-1.6l-.7-.9-3 2.1c.5.7.9 1.2 1.1 1.3l1.1-.2.5-.1-.1.2-.8.5-.5.3-1.3.9-.2.1h-.2v-.1l.3-.3.7-.9-.4-.9-.5-.7-3.4 2.3.4.6c.5.7.8 1.2 1 1.3l.6.4h.7l1-.4h.2zM146.8 62.6l-.2.1-.7.3-.8.3-.5.3-.2.1h-.2v-.2l.2-.8c-.7-.3-1.3-.8-1.6-1.4-.5-.9-.6-2-.3-3.1.3-1.2 1.1-2 2.2-2.6s2.2-.7 3.3-.4 1.9 1 2.5 2l.3 1.4.1.6.4.3.2.1-.1.1h-.1l-.9.4-.4.2-.5.3-.2.1h-.3l.3-.4c1.2-.9 1.5-1.9 1-2.8-.4-.7-1.2-1-2.3-.8-.8.1-1.6.4-2.5.9-1.3.7-2.2 1.5-2.5 2.4l.1 1.4c.5 1 1.6 1.3 3.1.9h.4zM147.6 72.3l-.1-.1v-.1c-.1-.3-.3-1-.8-2.3l-.2-.5-.1-.4v-.4l.2.2.3.4.3.1.4-.1.6-.2 2.7-1-.9-2.3-.1-.4-3.5 1.3-.2.6.1.4-.1.1-.1-.1-.3-.8-.2-.5-.3-.7-.5-1.2V64l.1.1.4.7.6-.1 6.3-2.3.4-.4-.2-.7v-.2l.1.1.3.9.5 1.4.3.9.1.2v.2h-.1l-.2-.4-.3-.3-.5.1-2.7 1 .1.3c.3.8.6 1.6.9 2.5l2.6-1 .6-.8v-.4l.2.1v.1l.2.6.4 1 .3.9.3.8v.1l-.3-.4-.4-.5-.8.2-5.6 2.1-.8.5.1.7z"/><path fill="#034da1" d="m157.4 78.2-.3-.7-.2-.3-.8.1-1.4.3c-.9.2-2.1.5-3.6.8l-2 .4h-.2c0-.1.5-.8 1.6-2.2s2.3-2.9 3.7-4.5l-.9.2-.8.2-.4.1-3.7.8-.3.2v1.1l-.1-.2v-.2l-.2-.9-.3-1.1-.1-.3v-.2l.2.5.3.7.9-.1 4.9-1.1.9-.2.7-.6v-1l.1-.2.2.1.1.5.1.6c.1.6.3 1.1.4 1.4l-4.5 5.4 4.7-1 .3-.2v-.3l-.1-.5.1-.2.1.2.1.3v.3l.1.3c.2.8.3 1.3.3 1.4zM154.1 87.6c-1.2.1-2.3-.2-3.2-.9q-1.35-1.05-1.5-2.7c-.1-1.1.3-2 1-2.9.8-.8 1.8-1.3 3-1.4s2.3.2 3.2.9 1.4 1.6 1.5 2.8c.1 1.1-.2 2-1 2.9-.8.7-1.8 1.2-3 1.3m-.4-2.2c1.6-.1 2.8-.4 3.5-.9l.7-1.3c0-.5-.4-1-1.2-1.2-.7-.3-1.7-.4-2.9-.3-1.7.1-3 .5-3.8 1.2l-.4 1.1.9 1.1c.8.4 1.9.5 3.2.3M151.7 95h-.4l-.9-.1h-.9q.15-1.5.3-5.7v-.5l.1-.5.1.2.1.8.6.1 6.6.2.5-.1.2-.5v-.3l.1-.1.1.2v.2l-.1 3.1v.1l-.1.1-.1-.3-.1-.5-1-.1-2.9-.1c-.6 0-1.9-.1-4-.1v2.3l.7 1.1 1 .3.2.1zM152.5 103.6c-1.2-.2-2.2-.7-2.9-1.6s-1-1.9-.8-3 .7-1.9 1.7-2.6c1-.6 2-.8 3.2-.7 1.2.2 2.2.7 2.9 1.6s1 1.9.8 3-.7 1.9-1.7 2.5c-.9.8-1.9.9-3.2.8m.2-2.2q2.4.45 3.6 0l.9-1.1c.1-.5-.2-1-.8-1.5-.6-.4-1.6-.8-2.7-.9-1.7-.3-3-.2-4 .3l-.7 1 .6 1.2c.8.5 1.8.8 3.1 1M148.5 111.7v-.5l-.1-.6-.9-.3-.5-.1c-.3-1.1-.4-2.1-.1-2.9.3-1.1 1-1.9 2-2.4s2.1-.6 3.3-.2q1.8.6 2.7 2.1c.6 1 .7 2.1.4 3.2l-.8 1.3-.2.3.2.4.1.2h-.1l-.5-.2-.7-.2-1.2-.3-.2-.2.5-.1c.7.1 1.3 0 1.8-.2l.8-1c.5-1.5-.6-2.6-3.3-3.4q-2.4-.75-3.6-.3l-1 1c-.2.6.1 1.1.9 1.3.6.2 1 .3 1 .2l.2-.4.1-.3.2-.2v.2l-.3 1-.2.7-.2.7-.2.6-.1.2zM150.7 120.7v-.2l.2-.9c0-.1-.4-.6-1.3-1.6l-.8-.9-.8-.9-.8-.4-2.3-1-.3.1-.4.6-.2.2v-.3l.1-.3.3-.7.4-.9.1-.3.2-.6.3-.7.2-.1v.2l-.2.9.3.2 2.6 1.2c.7 0 1.6 0 2.8-.1.5 0 1.3-.1 2.1-.2l.4-.5.1-.1v-.1l.2-.2v.3l-.1.1-.2.4-.6 1.3-.1.2-.2.5-.3.7-.1.2v.1l-.2.2-.1-.1.2-.4v-.7l-.4-.1h-1.3c-.6 0-1.4.1-2.3.1.3.4.9 1 1.6 1.9.6.6.9 1 1 1l.4-.2.3-.5v.3l-.1.3-.5 1.1-.2.4z"/><path fill="#000" d="m208.9 181.4-1.3 1.4c-.4.6-.8 1.2-1.2 2s-.7 1.6-1 2.5-.5 1.9-.7 3c-.1 1-.2 2-.2 2.9s.1 1.8.2 2.6.3 1.6.6 2.3.6 1.3 1 1.7l-.5.6c-.6-.4-1.2-.9-1.7-1.5-.5-.7-.8-1.4-1.1-2.3s-.4-1.8-.5-2.8 0-2.1.1-3.1c.2-1.1.4-2.2.8-3.2s.8-2 1.3-2.8c.5-.9 1.1-1.6 1.7-2.2q.9-.9 2.1-1.5zM219.1 189.6c0 .6-.1 1.2-.2 1.8s-.3 1.2-.5 1.8l-.9 1.6-1.2 1.3-1.6.9c-.6.2-1.2.3-1.9.3h-5l.1-.5 1-.3.4-.3 1.5-10.9-1.5.2v-.8c.8-.2 1.6-.3 2.4-.4s1.6-.1 2.3-.1c.9 0 1.6.1 2.3.4s1.2.6 1.7 1.1c.4.5.8 1.1 1 1.7 0 .6.1 1.3.1 2.2m-6-4.6h-.6l-1.4 10.7v.3l.2.2.5.1h.8l1.4-.3 1.1-.8.9-1.1.6-1.4.4-1.5.1-1.5c0-.7-.1-1.4-.2-2-.2-.6-.4-1.1-.7-1.5l-1.3-1c-.5-.1-1.1-.2-1.8-.2M227.3 189.4l-.1.6-.3.7-.6.7-1 .8c-.4.3-.9.5-1.5.8q-.9.45-2.1.9l.2 1 .4.8.5.5.5.2.5-.1.7-.2.9-.5 1.1-.8.1.1.1.2.1.2.1.1-1.5 1.2-1.2.7-1 .4-.8.1-.8-.2-.8-.6-.7-1.1c-.2-.4-.3-1-.3-1.6l.2-1.6.5-1.4.9-1.3 1.2-1.1.5-.4.7-.3.7-.2.7-.1.8.2.6.4.3.6zm-3.8 0-.6.7-.5.9-.4 1-.2 1c.8-.3 1.5-.6 2-.9l1.1-.8.5-.7.1-.7-.1-.5-.2-.3-.3-.2-.3-.1-.5.1zM235.7 189.4l-.1.6-.3.7-.6.7-1 .8c-.4.3-.9.5-1.5.8q-.9.45-2.1.9l.2 1 .4.8.5.5.5.2.5-.1.7-.2.9-.5 1.1-.8.1.1.1.2.1.2.1.1-1.5 1.2-1.2.7-1 .4-.8.1-.8-.2-.9-.6-.7-1.1c-.2-.4-.3-1-.3-1.6l.2-1.6.6-1.4.9-1.3 1.2-1.1.5-.4.7-.3.7-.2.7-.1.8.2.6.4.3.6zm-3.8 0-.6.7-.5.9-.4 1-.2 1c.8-.3 1.5-.6 2-.9l1.1-.8.5-.7.1-.7-.1-.5-.2-.3-.3-.2-.3-.1-.5.1zM251 196.3c-.6.4-1.2.7-1.7.9l-1.2.4-.6-.3-.2-.9.1-.6.2-1 .2-1.3.2-1.3.2-1.2.1-.9-.1-.8-.3-.3-.4.1-.6.4-.7.6-.7 1-.4.7-.3.7-.2.8-.2.9c-.1.6-.1 1.1-.2 1.6v1.1l-.4.2-.5.2-.5.2-.4.2-.3-.3c.1-.7.3-1.4.4-2.1s.3-1.4.4-2.1.2-1.2.3-1.7l.1-1.1-.2-.9-.4-.3-.4.1-.6.4-.7.6-.7 1-.3.6-.3.7-.2.8-.2 1c-.1.6-.2 1.1-.2 1.6v1.1l-.4.2-.5.2-.5.2-.4.2-.4-.3c.1-.7.3-1.5.4-2.2.1-.8.3-1.5.4-2.2s.2-1.3.3-1.9l.1-1.3v-.4l-.1-.2-.1-.1h-.5l-.4.1-.4.1-.1-.5.9-.4.9-.3.7-.2.5-.1h.3l.1.2.1.4v1.9l1.1-1.2 1-.8.9-.4.8-.1.6.1.4.4.2.6.1.7v.6l1.1-1.1.9-.7.8-.4.8-.1.5.1.4.3.3.6.1.8-.1.9-.2 1.1-.2 1.2-.2 1.2-.2 1-.1.7.1.5.3.1.6-.1.7-.2zM259.5 189.4l-.1.6-.3.7-.6.7-1 .8c-.4.3-.9.5-1.5.8q-.9.45-2.1.9l.2 1 .4.8.5.5.5.2.5-.1.7-.2.9-.5 1.1-.8.1.1.1.2.1.2.1.1-1.5 1.2-1.2.7-1 .4-.8.1-.8-.2-.8-.6-.7-1.1c-.2-.4-.3-1-.3-1.6l.2-1.6.6-1.4.9-1.3 1.2-1.1.5-.4.7-.3.7-.2.7-.1.8.2.6.4.3.6zm-3.9 0-.6.7-.5.9-.4 1-.2 1c.8-.3 1.5-.6 2-.9l1.1-.8.5-.7.1-.7-.1-.5-.2-.3-.3-.2-.3-.1-.5.1zM269.6 196.4l-1.5.9-1 .3-.4-.1-.3-.5-.2-.9-.1-1.4-.8 1.2-.8.9-.8.6-.8.2-.8-.2-.8-.6-.6-1.1c-.1-.5-.2-1-.2-1.6l.2-1.6.5-1.4.9-1.3 1.3-1.1.6-.4.7-.3.7-.2.7-.1.4.1.5.3.2-1.3.2-1.2.1-1v-1.2l-.1-.2-.2-.1h-.5l-.4.1-.4.1-.1-.5.9-.4.9-.3.7-.2.5-.1.5.2.2.6-.1 1-.2 1.4c-.1.5-.2 1.1-.3 1.7l-.3 1.8-.3 1.8-.3 1.6-.2 1.3-.1.9c0 .7 0 1.2.1 1.6l.4.5h.5l.6-.2zm-3.4-3.4.2-1.4c.1-.5.2-1.1.3-1.7l-.4-.4-.4-.3-.4-.2-.5-.1-.8.2-.7.6-.6.8-.4 1-.3 1-.1.9.1 1.1.3.8.5.5.5.2.5-.2.6-.6.7-.9zM280.6 195.9l-1 .7-1 .5-.8.4-.7.1-.5-.2-.5-.4-.3-.6-.1-.9v-.7l.1-.5v-.5l.8-4.8h-1.4l-.2-.4 1.1-.6h.7v-.4l.2-.7.1-.4.2-.3.2-.2 1.4-.8.2.3-.1.3-.2.6-.2 1-.1.6h2.5l.3.3-.3.3-.4.3-.4.3-.3.2-.4-.3-1.1-.1-.7 4.3-.1.4v1.1l.2.9.5.3.9-.1 1.2-.5zM289.5 191.5l-.2 1.4-.5 1.4-.7 1.3-1 1.1-.6.4-.6.3-.6.2-.6.1-1.3-.3-1-.8-.6-1.2-.2-1.6.1-1.4.4-1.3.8-1.2 1.1-1.1 1.2-.7 1.3-.3 1.4.3.9.8.5 1.2zm-1.7.6c0-1-.2-1.8-.5-2.4-.4-.5-.8-.8-1.5-.8l-.8.2-.6.5-.5.7-.3.9-.2.9-.1.9.2 1.3.4 1 .6.7.8.3.8-.2.6-.5.5-.8.3-.9.2-.9zM303.7 191c0 .7-.1 1.4-.4 2.2-.2.7-.6 1.4-1.1 2.1l-.8.9-.9.8-1.1.5-1.2.2-.5-.1-.6-.3-.6-.5-.5-.6-.3-.6-.1-.7.1-.8.2-1.3.2-1.6.3-1.8.3-1.8c.1-.6.2-1.1.2-1.7l.2-1.3.1-.9v-.4l-.1-.2-.2-.1h-.5l-.3.1-.4.1-.1-.5.9-.4.9-.3.8-.2.5-.1.4.2.1.7v.8l-.1 1.1-.2 1.4-.4 1.4-.2 1.6-.2 1.6 1-1.3 1-.9.9-.5.7-.1.8.2.6.6.4 1zm-3-1.8-.5.2-.7.6-.8 1-.8 1.3-.2 1.3-.1.9.1.5.4.5.6.4.6.2.6-.1.5-.3.4-.4.3-.5.4-.7.2-.8.1-.8v-.7l-.1-1.1-.3-.8-.4-.5zM312.3 189.4l-.1.6-.3.7-.6.7-1 .8c-.4.3-.9.5-1.5.8q-.9.45-2.1.9l.2 1 .4.8.5.5.5.2.5-.1.7-.2.9-.5 1.1-.8.1.1.1.2.1.2.1.1-1.5 1.2-1.2.7-1 .4-.8.1-.8-.2-.8-.6-.7-1.1c-.2-.4-.3-1-.3-1.6l.2-1.6.5-1.4.9-1.3 1.2-1.1.5-.4.7-.3.7-.2.7-.1.8.2.6.4.3.6zm-3.9 0-.6.7-.5.9-.4 1-.2 1c.8-.3 1.5-.6 2-.9l1.1-.8.5-.7.1-.7-.1-.5-.2-.3-.3-.2-.3-.1-.5.1zM330.7 185.2l-1 .3-.3.3v6c0 .9-.1 1.7-.4 2.4s-.6 1.3-1.1 1.8-1 .8-1.6 1.1-1.3.4-2 .4-1.4-.1-2-.3-1.2-.5-1.7-.9-.9-.9-1.1-1.5c-.3-.6-.4-1.3-.4-2.1v-6.8l-.3-.3-1.1-.3v-.8h5.6v.8l-1 .3-.3.3v6.1c0 .6 0 1.2.1 1.7l.5 1.2.9.7 1.5.3 1.2-.3.8-.8.4-1.2.1-1.4V186l-.3-.3-1.1-.3v-.8h4.7v.6zM338 197.2v-.9l1-.3.3-.3v-5.3l-.2-.5-.3-.4-.5-.1-.4.1-.6.1-.6.3-.9.5v5.3l.3.3 1 .3v.9h-5.4v-.9l1-.3.3-.3v-6.1l-.1-.4-.4-.1-.8-.2v-.8l1-.1.9-.1.8-.2.8-.3.4.5.2 1.1 1.2-.8 1-.5 1-.2.8-.1.9.1.7.5.5.9.2 1.2v5.7l.2.2.4.1.7.2v.9zM344.2 197.2v-.9l1-.3.3-.3v-5.8l-.1-.5-.4-.3-.8-.1v-.8l1.8-.3 1.6-.4h.8v8.3l.3.3 1 .3v.8zm4.5-12.9-.1.7-.4.5-.6.3-.7.1-.6-.1-.5-.2-.4-.4-.1-.5.1-.7.4-.5.6-.3.7-.1.6.1.5.2.4.4zM360.6 188.6l-.5.1-.2.1-.2.2-.1.2-2.9 7.1-.3.4-.4.3-.6.3-.6.2-3.6-8.3-.2-.2-.2-.2-.2-.1-.5-.1v-.9h4.9v.9l-.6.1-.4.1v.4l2.1 4.7 2-4.7.1-.2-.1-.2-.3-.1-.5-.1v-.9h3.3zM370.4 191.6l-.3.2-.4.2-.4.2-.4.2h-4.6l.2 1.3.5 1 .7.6 1 .2h.6l.7-.2.8-.4 1.1-.6.2.1.2.2.2.2.1.1-1.3 1.2-1.1.7-1.1.3-1.2.1c-.6 0-1.2-.1-1.7-.3l-1.4-1q-.6-.6-.9-1.5c-.2-.6-.3-1.3-.3-2 0-.9.2-1.7.5-2.4s.9-1.3 1.6-1.8l1.3-.7 1.6-.3c.7 0 1.2.1 1.7.3l1.3.9.7 1.3zm-4.4-2.9-.8.2-.5.5-.3.8-.1 1.1h3.1l.3-.1.1-.3-.1-.7-.3-.7-.5-.6zM380.2 187.9l.1.3-.1.6-.1.8-.2.8-.2.7-.2.5h-.8l-.1-.8-.2-.7-.3-.5-.5-.2h-.4l-.5.2-.5.5-.6.9v4.6l.4.3c.3.1.7.2 1.4.3v.8h-5.9v-.7c.9-.2 1.3-.4 1.3-.6v-5.8l-.1-.4-.1-.2-.1-.1-.2-.1-.2-.1h-.8v-.8l1.1-.1.8-.2.7-.2.8-.2.5.5.1 1.2.6-.6.8-.5.8-.3.9-.1.8.1zM388.8 194.3l-.2 1.2-.6.9-.8.6-.9.3-.9.1h-1.6l-.8-.1-.8-.2-.7-.3-.1-.4v-.8l.1-1 .2-1 1 .1.4 1 .6.8.7.5.8.2 1-.2.3-.8-.2-.7-.5-.6-.8-.5-.9-.5-.8-.5-.8-.6-.6-.7-.2-.9.3-1.1.9-.9 1.2-.5 1.4-.2h.9l.9.2.8.2.6.3v.4l-.1.7-.2.8-.3.6-.8-.1q-.15-.9-.6-1.5l-1.2-.5-.9.3-.3.7.2.6.4.5.7.5 1 .5.9.5.8.6.6.8zM390.1 197.2v-.9l1-.3.3-.3v-5.8l-.1-.5-.4-.3-.8-.1v-.8l1.8-.3 1.6-.4h.8v8.3l.3.3 1 .3v.8zm4.5-12.9-.1.7-.4.5-.6.3-.7.1-.6-.1-.5-.2-.4-.4-.1-.5.1-.7.4-.5.6-.3.7-.1.6.1.5.2.4.4zM403.7 195.5q-1.5 1.05-2.4 1.5c-.6.3-1.1.5-1.5.5l-.9-.2-.7-.5-.5-.9-.2-1.3v-5.5h-1.2l-.3-.4.8-1h.7v-2l2.3-1.7.4.4v3.3h3l.4.4-.2.4-.3.4-.3.3-.2.2-.3-.1-.4-.1-.5-.1h-1.2v4.6l.1.8.2.6.3.3.3.1h.4l.4-.1.6-.2.8-.4z"/><path fill="#000" d="m414.4 188.6-.5.1-.3.1-.2.2-.1.3-3.4 8.7c-.3.8-.6 1.4-.9 1.9l-1.1 1.3-1.2.8-1.3.2-.8-.1-.7-.2-.5-.3-.2-.2.2-.4.5-.6.5-.6.4-.4 1 .4.9-.1.4-.2.4-.3.4-.5.4-.7.3-.7-3.4-8.2-.4-.4-.8-.3v-.8h4.8v.8l-.6.1-.3.1-.1.2.1.3 2 4.7 1.9-4.7.1-.3v-.2l-.2-.1-.5-.1v-.8h3.3v1zM430.2 196.3l-1.5.9-1.1.3-.4-.2-.4-.5-.2-1v-1.4l-.9 1.3-.9 1-1 .7-1 .2-.5-.2-.5-.5-.4-.8-.2-1.1v-.8l.1-1 .2-1.1.2-1.1.1-.9.1-.7v-.4l-.1-.2-.1-.1h-.5l-.3.1-.4.1-.1-.5.9-.4.9-.4.8-.2.5-.1.4.2.1.7-.1.8-.2 1-.2 1.2-.2 1.2-.2 1v.8l.2 1.2.5.4.5-.2.7-.6.9-1c.3-.4.6-1 1-1.6l.1-.9.1-.8.1-.8v-1l-.1-.2-.1-.1h-.4l-.3.1-.4.1-.2-.5.9-.4.9-.4.7-.2.5-.1.4.2.1.7-.1.8-.1 1-.2 1.1-.2 1.1-.1 1-.1.8c0 .6 0 1.1.1 1.3l.4.4.5-.1.6-.2zM431.2 200l-.3.2-.4.1-.4.2-.3.1-.3-.3 9.1-18.9.3-.1.4-.2.4-.1.3-.1.4.2zM446.6 188.6l-.4.4-.4.4-.4.3-.2.1-.3-.2-.4-.4-.5-.4-.6-.2-.5.1-.5.3-.3.4-.1.5.4.8 1.2.8.8.4.7.6.6.8.2.9-.4 1.3-1 1.1-1.3.7-1.4.3-1-.2-.9-.3-.6-.5-.2-.5.1-.3.3-.5.4-.5.3-.1.1.1.2.3.3.5.4.4.6.4.8.1.6-.1.6-.3.3-.6.1-.6-.1-.7-.5-.5-.6-.5-.8-.4-.9-.5-.5-.6-.4-.5v-.7l.3-1.1.9-1 1.1-.5 1.3-.3.9.2.6.3.6.3zM458.9 187l-.2 1-.5.9-.7.7-.9.5.9.3.7.6.4.8.2 1q0 .9-.3 1.8l-.9 1.5-1.5 1c-.6.3-1.2.4-1.9.4l-1.5-.4-1.5-1.2.4-.8.7.6.6.4.6.2.7.1 1.2-.3.9-.7.5-1 .2-1.2-.2-1-.4-.7-.6-.4-.7-.1h-.6l-.1-.7 1.2-.4.9-.6.6-.9.2-1.1-.1-.6-.2-.5-.4-.4-.6-.1-.6.1-.5.4-.3.5-.1.7-.8.3-.8.2-.2-.4.4-.9.9-.9 1.2-.7 1.4-.3 1.2.2.8.5.5.8zM472.7 191.5l-.2 1.4-.5 1.4-.7 1.3-1 1.1-.6.4-.6.3-.6.2-.6.1-1.3-.3-1-.8-.6-1.2-.2-1.6.1-1.4.4-1.3.8-1.2 1.1-1.1 1.2-.7 1.3-.3 1.4.3.9.8.5 1.2zm-1.7.6c0-1-.2-1.8-.5-2.4-.4-.5-.8-.8-1.5-.8l-.8.2-.6.5-.5.7-.3.9-.2.9-.1.9.2 1.3.4 1 .6.7.8.3.8-.2.6-.5.5-.8.3-.9.2-.9zM482.8 182.9l-.5.4-.5.4-.5.3-.4.1-.3-.2-.3-.4-.4-.4-.5-.2-.6.2-.5.6-.4.8-.3 1-.2 1-.1.9-.1.5h2.6l.2.3-.3.3-.4.3-.4.3-.3.2-.2-.2-.3-.1-.4-.1h-.7l-.7 6.2c-.1.7-.3 1.5-.5 2.2s-.5 1.3-.9 1.9c-.3.6-.8 1.1-1.2 1.6l-1.4 1.2-.3-.7.9-.9.7-1.4c.2-.5.4-1.1.5-1.7s.2-1.2.3-1.7l.8-6.8h-1.5l-.2-.3 1.1-.7h.7l.3-1.6.4-1.4.7-1.3 1.1-1.1 1.1-.7 1.2-.3.9.2.7.4.6.4zM496.9 184.9l-1 .3-.4.3-.9 6.4q-.15 1.35-.6 2.4c-.3.7-.7 1.3-1.1 1.7l-1.5 1.1c-.6.2-1.2.4-1.9.4l-1.6-.3-1.2-.7-.8-1.2c-.2-.5-.3-1-.3-1.7l.1-1.2 1-6.9-.3-.3-1-.3.1-.5h4.4l-.1.5-1 .3-.4.3-.9 6.5-.1.6v.6l.2 1.3.5 1 .8.6 1.1.2 1.2-.3.9-.8.7-1.2.4-1.5.9-6.9-.3-.3-.9-.3.1-.5h3.9zM507.3 191.7l-.8.4-.3.4-.1.7-.1.9-.1.9-.1.6-1.4 1-1.1.6-1 .3-.8.1c-.6 0-1.1-.1-1.7-.3l-1.4-1c-.4-.4-.7-1-1-1.6s-.4-1.4-.4-2.2c0-.6.1-1.3.2-1.9.2-.6.4-1.3.6-1.8.3-.6.6-1.1 1-1.7l1.3-1.3c.6-.5 1.2-.8 1.9-1.1s1.5-.4 2.4-.4l.7.1.8.2.7.3.6.4-.1.3-.3.5-.3.2-.4.4-.4-.1-1.1-1c-.4-.2-1-.3-1.6-.3l-.9.3-1.1.7-.9 1.1-.7 1.4-.4 1.6-.2 1.5c0 .7.1 1.3.3 1.9l.8 1.3 1.1.8 1.2.3 1-.1.8-.4.4-3v-.2l-.3-.2-.7-.2-1.2-.2.1-.5h4.9zM517.9 185.1l-.1.3-.3.5-.4.5-.3.4-.4-.1-.4-.5-.5-.4-.6-.3-.8-.1-.9.2-.9.5-1.1 1.3-.7 1.6-.4 1.7-.1 1.5c0 .7.1 1.4.3 1.9l.8 1.3 1 .7 1.1.2.6-.1.7-.3.9-.5 1.1-.8.1.1.1.2.1.2v.1l-1.3 1.2-1.2.8-1.1.4-1 .1-1.5-.3-1.3-1q-.6-.6-.9-1.5t-.3-2.1c0-.6.1-1.3.2-1.9.1-.7.3-1.3.6-1.9s.6-1.2 1-1.8l1.5-1.5c.5-.4 1-.7 1.7-.9.6-.2 1.2-.3 1.9-.3q1.05 0 1.8.3zM525.9 192.7l-1.4 3.2.2.4 1.1.2-.1.5h-3.9l.1-.5 1-.3.5-.4 4.9-11.2.4-.3.4-.3.4-.2.4-.2 2.2 12.2.1.3.2.2.3.2.5.1v.5H529l.1-.5 1-.2.2-.5-.6-3.2zm3.7-1-.9-5.3-2.3 5.3zM542.5 188.9l-.5.4-.5.4-.5.3-.4.1-.3-.2-.4-.4-.5-.4-.6-.2-.8.2-.7.6-.5.8-.4 1-.2 1-.1 1 .1 1.2.4.9.6.6.7.2.5-.1.7-.3.8-.5 1-.7.2.3.2.2-1.4 1.2-1.2.7-1 .4-.8.1-.8-.2-.8-.6-.7-1.1q-.3-.75-.3-1.8l.1-1.4.5-1.4.8-1.3 1.3-1.1.6-.4.7-.3.8-.2.7-.1.8.2.6.4.5.4zM548.5 195.9l-1 .7-1 .5-.9.4-.6.1-.5-.2-.5-.4-.3-.6-.1-.9v-1.2l.1-.5.8-4.8H543l-.1-.4 1.1-.6h.6l.1-.4.1-.7.2-.4.2-.3.2-.2 1.3-.8.3.3-.1.3-.2.6-.2 1-.1.6h2.5l.2.3-.2.3-.4.3-.4.3-.3.2-.4-.3-1.1-.1h-.1l-.6 4.3-.1.4v.8l-.1.3.3.9.5.3.8-.1 1.3-.5zM552.3 196.1l-.2.7-.3.8-.5.8-.7.9-.7.7-.7.5-.4-.4 1.1-1.6.4-1.3v-.3l-.2-.3-.4-.2h-.5l-.1-.6.5-.3.7-.4.7-.2.6-.2.3.2.2.3.1.4zM564.9 197.2h-6.5l.1-.7 1.3-.2.8-.2.4-.3.2-.2 1-7.9.1-.6-.1-.4-.2-.1h-.4l-.7.1-1.1.2-.2-.7 1.1-.3 1.2-.5 1.2-.5.9-.4.3.4-1.5 10.7.1.2.3.3.7.2 1.1.2zM575.1 188.4c0 1.2-.2 2.3-.5 3.3s-.8 2-1.5 2.8q-1.05 1.2-2.4 2.1c-1 .5-2.1.9-3.3 1l-.1-.7c.8-.2 1.5-.4 2.1-.8.6-.3 1.2-.7 1.6-1.2l1.1-1.6c.3-.6.5-1.2.7-1.9l-1.2.9-1.4.3-1.1-.2-.9-.6-.5-.9-.2-1.2.2-1.2.4-1.2.7-1.1.9-.9 1.1-.6 1.2-.2 1.2.2.9.7.6 1.2c.3.6.4 1.2.4 1.8m-4.2 3.1 1.2-.4 1-.9.1-1.6-.1-1.4-.4-.9-.5-.5-.6-.1-1.1.3-.7.9-.4 1.2-.1 1.2.2 1 .4.7.5.3zM583.8 185l-.3.4-.4.4-.3.3-.3.3h-3.7l-.2.7-.2.9-.2.9-.2.6.9-.2 1-.1 1.3.2 1 .8.6 1 .2 1.1-.2 1.2-.3 1.2-.7 1.1-.9.9-1.1.6-1.3.2-1.7-.4-1.5-1.2.4-.7.9.5.7.4.6.2h.5l1.2-.3.9-.8.5-1.2.2-1.3-.2-.9-.4-.7-.6-.5-.9-.2-1.1.2-1.1.7-.4-.4.2-.8.3-1.1.3-1.1.3-1.1.3-1 .2-.9h4.8l.3-.1.3-.1zM592.4 185.2c-.8.2-1.4.4-2 .7s-1.1.7-1.6 1.2l-1.2 1.5c-.3.6-.6 1.2-.8 1.8l1.3-.9 1.2-.3 1.2.2.9.6.5.9.2 1.2-.1 1.2-.4 1.2-.6 1.1-.8.9-1 .6-1.2.2-1.3-.3-1-.8-.7-1.3c-.2-.5-.2-1-.2-1.6 0-.7.1-1.4.2-2.1.2-.7.4-1.4.7-2s.7-1.2 1.1-1.8l1.5-1.5c.6-.4 1.2-.8 1.9-1.1s1.4-.5 2.2-.6zm-3.7 5.3-1.1.3-1.1.9-.1.8v.8l.1 1.3.4.9.6.5.8.2.7-.2.5-.5.4-.6.3-.8.1-.8v-.7l-.1-1.1-.4-.7-.5-.3zM598 190.8c-.2 1.1-.4 2.2-.8 3.2s-.8 1.9-1.3 2.8c-.5.8-1.1 1.6-1.7 2.2q-.9.9-2.1 1.5l-.3-.6 1.3-1.3c.4-.5.8-1.2 1.2-1.9s.7-1.6 1-2.5q.45-1.35.6-3c.1-1 .2-2 .2-2.9 0-1-.1-1.9-.2-2.7s-.3-1.6-.6-2.3-.6-1.3-1-1.7l.5-.6c.7.4 1.2.9 1.7 1.6s.8 1.5 1.1 2.3c.3.9.4 1.8.5 2.9.1.8 0 1.9-.1 3"/></svg>